<?xml version="1.0" encoding="UTF-8"?>
<svg version="1.1" xmlns="http://www.w3.org/2000/svg" width="496" height="150">
<path d="M0 0 C24.5766245 -0.1158173 49.15314249 -0.15199356 73.7300116 -0.16347836 C79.71343169 -0.16630298 85.69685031 -0.17054704 91.68026938 -0.17498253 C108.36991663 -0.18707365 125.0595628 -0.19741715 141.74921431 -0.20085762 C143.32373856 -0.20118697 143.32373856 -0.20118697 144.93007137 -0.20152298 C146.50713269 -0.20185039 146.50713269 -0.20185039 148.11605384 -0.20218442 C150.24472958 -0.20262782 152.37340532 -0.20307438 154.50208106 -0.2035241 C155.55785389 -0.20374553 156.61362671 -0.20396696 157.70139266 -0.2041951 C174.99498826 -0.20818531 192.28854286 -0.22581064 209.58212248 -0.24888362 C227.49184846 -0.27258183 245.40155363 -0.28505741 263.31129553 -0.28622554 C273.30777666 -0.2871389 283.30420294 -0.29281294 293.30066886 -0.31104515 C301.75526782 -0.32641946 310.20979462 -0.33157929 318.66440491 -0.32330705 C322.96776192 -0.31940208 327.27097328 -0.32032581 331.57431235 -0.3343644 C335.51327675 -0.34709903 339.45198583 -0.34591033 343.39094985 -0.33377369 C344.81214523 -0.33181703 346.23335871 -0.33489372 347.65452866 -0.34361805 C357.41003009 -0.39970877 366.65615325 0.11856729 374.55469336 6.45777656 C382.10745211 14.11569787 381.75204691 23.55432173 381.75537696 33.62684394 C381.73979222 35.67362997 381.72320737 37.72040859 381.70569434 39.76717903 C381.70398114 41.88846028 381.70405104 44.00974364 381.70581641 46.13102485 C381.70416847 50.56162732 381.68556266 54.99172056 381.65393653 59.42220832 C381.61418815 65.09144747 381.60990318 70.76002305 381.61739936 76.42937519 C381.62047282 80.80380564 381.60833625 85.17808784 381.59126868 89.55248214 C381.58425654 91.64279327 381.58111197 93.73312119 381.58196082 95.8234439 C381.58015688 98.74534484 381.55872604 101.66645956 381.53186622 104.58822395 C381.53479682 105.44501747 381.53772742 106.30181099 381.54074683 107.18456794 C381.44496287 113.96070936 379.90184858 119.42573478 375.42444434 124.72421028 C374.98745215 125.26432746 374.55045997 125.80444465 374.10022559 126.36092903 C365.72518952 133.41965295 356.66768929 132.60360992 346.32327857 132.55137397 C344.48795921 132.55670107 342.65264422 132.56376769 340.81733754 132.57242103 C335.78092426 132.59105374 330.74480491 132.58474113 325.70837941 132.574268 C320.2740324 132.56727778 314.83974587 132.58327264 309.40541663 132.59626533 C298.7617265 132.61791387 288.11814326 132.61777616 277.47443835 132.60963979 C268.82338792 132.60334111 260.17236867 132.60447562 251.52131858 132.61091186 C250.29025397 132.61181352 249.05918937 132.61271517 247.79081978 132.61364415 C245.28994435 132.61549534 242.78906894 132.61735791 240.28819353 132.61923171 C217.50153638 132.63534057 194.71493475 132.62813225 171.92828093 132.61167857 C151.13593774 132.59683265 130.34372593 132.60560849 109.55139747 132.63363411 C86.18329027 132.66507144 62.81526043 132.67996101 39.44713166 132.66983409 C36.95482166 132.66881154 34.46251165 132.66781693 31.97020163 132.66685058 C30.13080856 132.666136 30.13080856 132.666136 28.25425604 132.66540698 C19.61511527 132.66324271 10.97603568 132.67304771 2.33690848 132.68762161 C-8.19369105 132.70513847 -18.72411206 132.70503681 -29.25470456 132.68226995 C-34.62711528 132.67112173 -39.9992114 132.66797868 -45.37160859 132.68657066 C-50.29167939 132.70337812 -55.21116127 132.69702043 -60.13119393 132.67235387 C-61.9090457 132.66747108 -63.686945 132.67098491 -65.46475699 132.68384131 C-83.31993215 132.80362313 -83.31993215 132.80362313 -90.88805566 127.03671028 C-97.98057184 119.80125823 -99.19307053 111.79593465 -99.16271386 102.00961067 C-99.16782479 101.14507774 -99.17293573 100.28054481 -99.17820153 99.38981391 C-99.19201117 96.5545928 -99.19114742 93.71961711 -99.18883691 90.88436653 C-99.19272831 88.89953794 -99.19706389 86.91471019 -99.20182214 84.92988349 C-99.2092656 80.77837181 -99.20900648 76.6269452 -99.20372949 72.47543098 C-99.19793453 67.17182633 -99.21487573 61.86857087 -99.23807416 56.56502391 C-99.25284909 52.46848808 -99.25367813 48.37203566 -99.25056443 44.2754779 C-99.25107566 42.32077548 -99.25627586 40.36606814 -99.26637635 38.41139175 C-99.27879788 35.67176894 -99.27191528 32.93281755 -99.26037011 30.19320442 C-99.26801385 29.39656379 -99.27565759 28.59992317 -99.28353295 27.77914192 C-99.20794009 19.60930585 -97.13444076 12.87517569 -91.77868066 6.64217903 C-84.48671619 0.45003565 -78.16815215 0.43590629 -68.87465844 0.43447639 C-67.4459823 0.41992404 -66.01732247 0.40369044 -64.58868275 0.38591863 C-60.6883372 0.34259935 -56.78822303 0.32421419 -52.88767571 0.31046577 C-48.6926788 0.29166527 -44.4978843 0.25069352 -40.30302034 0.21324302 C-30.40149695 0.13012918 -20.49995891 0.08556384 -10.59817455 0.04754616 C-7.06544107 0.03342121 -3.53272188 0.01674374 0 0 Z " fill="#030202" transform="translate(107.88805565983057,8.963289722800255)"/>
<path d="M0 0 C0.86431641 -0.01611328 1.72863281 -0.03222656 2.61914062 -0.04882812 C10.47638595 -0.05475812 16.51919568 1.82848404 23 6.3125 C23.72832031 6.8075 24.45664063 7.3025 25.20703125 7.8125 C27.03791952 9.19920827 28.61365316 10.64432165 30.1875 12.3125 C29.375 14.25 29.375 14.25 28.1875 16.3125 C26.7025 16.8075 26.7025 16.8075 25.1875 17.3125 C24.56875 16.590625 23.95 15.86875 23.3125 15.125 C16.53078005 8.60411543 9.77187207 6.84695012 0.5625 6.75 C-0.63656982 6.72812622 -0.63656982 6.72812622 -1.85986328 6.70581055 C-10.85461644 6.85890878 -17.32139649 10.92773786 -23.7578125 17.0078125 C-30.56124312 24.63903696 -31.86538896 33.2413667 -31.37890625 43.1328125 C-30.77503836 49.26676526 -28.02856217 54.15513606 -24.8125 59.3125 C-24.45285156 60.05886719 -24.09320313 60.80523437 -23.72265625 61.57421875 C-22.48196724 63.94377502 -21.26035487 64.25396816 -18.8125 65.3125 C-17.74 65.9725 -16.6675 66.6325 -15.5625 67.3125 C-8.32338058 71.41415751 -0.00182272 72.60147032 8.1875 71.3125 C15.1802229 68.62299119 21.44170071 65.16689492 27.1875 60.3125 C28.1775 61.3025 29.1675 62.2925 30.1875 63.3125 C27.11052464 70.09351205 21.834874 73.29898107 15.125 76.1875 C4.39619406 79.97269156 -5.36902454 79.44542484 -15.7734375 74.9140625 C-25.90113661 69.57684318 -33.12352844 61.91019817 -36.9765625 51.0234375 C-39.28595394 40.77146614 -39.45872103 28.4456224 -33.8125 19.3125 C-28.82449008 11.5781505 -22.93898154 6.58831689 -14.8125 2.3125 C-14.0803125 1.92707031 -13.348125 1.54164062 -12.59375 1.14453125 C-8.40780874 -0.10772365 -4.34543326 -0.01598761 0 0 Z " fill="#A3774C" transform="translate(69.8125,34.6875)"/>
<path d="M0 0 C3.24071587 2.34732934 5.48989755 4.2094557 7.73046875 7.5703125 C6.08046875 8.8903125 4.43046875 10.2103125 2.73046875 11.5703125 C1.80234375 10.4565625 1.80234375 10.4565625 0.85546875 9.3203125 C-3.79185891 4.71236897 -10.29174453 2.40339019 -16.76953125 2.0703125 C-24.14404517 2.48724615 -30.27896804 5.03061761 -35.26953125 10.5078125 C-41.23679583 17.72303867 -41.03024616 25.63191227 -40.26953125 34.5703125 C-39.4233893 37.70488383 -38.23426948 39.99962697 -36.26953125 42.5703125 C-35.84542969 43.13234375 -35.42132813 43.694375 -34.984375 44.2734375 C-30.25174746 49.70475378 -24.00311292 51.58525615 -16.95703125 52.0703125 C-10.57930776 51.8565969 -3.17597943 49.18856856 1.58203125 44.90234375 C1.96101563 44.46277344 2.34 44.02320313 2.73046875 43.5703125 C4.05046875 44.2303125 5.37046875 44.8903125 6.73046875 45.5703125 C6.73046875 48.5703125 6.73046875 48.5703125 5.41015625 50.0703125 C-2.1038544 56.31572395 -8.66397313 58.94729278 -18.4375 58.859375 C-25.0480645 58.18464152 -32.26196972 56.09135739 -37.26953125 51.5703125 C-37.26953125 50.9103125 -37.26953125 50.2503125 -37.26953125 49.5703125 C-37.87410156 49.33054688 -38.47867188 49.09078125 -39.1015625 48.84375 C-41.7443467 47.2914119 -42.53890614 45.88840813 -43.95703125 43.1953125 C-44.37339844 42.42445312 -44.78976563 41.65359375 -45.21875 40.859375 C-48.47254545 33.7711812 -48.51674141 24.32191208 -46.55078125 16.83203125 C-45.60050669 14.61344669 -44.54348347 12.61862783 -43.26953125 10.5703125 C-42.89570312 9.93609375 -42.521875 9.301875 -42.13671875 8.6484375 C-37.65797353 1.70786544 -31.79129875 -1.82779839 -23.87890625 -3.92578125 C-15.36587999 -5.56976387 -7.4061073 -4.66546518 0 0 Z " fill="#A97F55" transform="translate(87.26953125,46.4296875)"/>
<path d="M0 0 C3.4375 1.8125 3.4375 1.8125 4.75 4.1875 C4.29671646 7.99508178 2.2740717 9.39103636 -0.5625 11.8125 C0.7575 12.4725 2.0775 13.1325 3.4375 13.8125 C3.4375 19.0925 3.4375 24.3725 3.4375 29.8125 C-3.63957596 32.84553256 -8.65152301 34.00567942 -16.25 31.6875 C-20.40977408 29.3329109 -23.66199272 26.63447185 -25.17578125 21.890625 C-26.28620849 15.92348067 -26.33561632 10.55371743 -22.87890625 5.38671875 C-16.55117278 -2.18027409 -9.19503253 -2.85078966 0 0 Z " fill="#090603" transform="translate(426.5625,52.1875)"/>
<path d="M0 0 C5.90831622 4.75947696 5.90831622 4.75947696 6.70703125 9.55859375 C6.99517196 14.92605216 6.936427 18.78389891 3.375 23 C0.17639199 26.17542969 -2.00008826 26.99545709 -6.5 27.125 C-11.36999919 27.06175326 -14.085506 26.20886029 -17.75 22.8125 C-20.83961523 18.28106432 -21.54933815 14.15207883 -20.75 8.8125 C-19.32897428 5.22610176 -17.85953858 2.17574932 -14.75 -0.1875 C-10.08373748 -2.08856992 -4.56260223 -1.9702146 0 0 Z " fill="#050403" transform="translate(236.75,55.1875)"/>
<path d="M0 0 C0.86431641 -0.01611328 1.72863281 -0.03222656 2.61914062 -0.04882812 C10.47638595 -0.05475812 16.51919568 1.82848404 23 6.3125 C23.72832031 6.8075 24.45664063 7.3025 25.20703125 7.8125 C27.03791952 9.19920827 28.61365316 10.64432165 30.1875 12.3125 C29.375 14.25 29.375 14.25 28.1875 16.3125 C27.1975 16.6425 26.2075 16.9725 25.1875 17.3125 C24.56875 16.590625 23.95 15.86875 23.3125 15.125 C16.53078005 8.60411543 9.77187207 6.84695012 0.5625 6.75 C-0.63656982 6.72812622 -0.63656982 6.72812622 -1.85986328 6.70581055 C-10.87432982 6.85924432 -17.26963055 10.95096765 -23.765625 16.9765625 C-29.29139704 23.28269166 -31.35463774 31.2279911 -32.8125 39.3125 C-34.8125 38.375 -34.8125 38.375 -36.8125 36.3125 C-38.19862238 29.13384512 -36.06774612 22.81697558 -32.21875 16.8359375 C-27.41850415 10.32412857 -21.9509862 6.0684748 -14.8125 2.3125 C-14.0803125 1.92707031 -13.348125 1.54164062 -12.59375 1.14453125 C-8.40780874 -0.10772365 -4.34543326 -0.01598761 0 0 Z " fill="#E1D1A9" transform="translate(69.8125,34.6875)"/>
<path d="M0 0 C0.33 0 0.66 0 1 0 C1.02578125 0.845625 1.0515625 1.69125 1.078125 2.5625 C1.55312186 12.06243727 3.08163137 19.14326938 10.2421875 25.74609375 C15.2469863 29.31618356 21.4444947 30.6296157 27.52734375 30.42578125 C33.75730396 29.35300769 40.78907385 26.88410142 45 22 C46.32 22.66 47.64 23.32 49 24 C49 27 49 27 47.6796875 28.5 C40.16567685 34.74541145 33.60555812 37.37698028 23.83203125 37.2890625 C17.22146675 36.61432902 10.00756153 34.52104489 5 30 C5 29.34 5 28.68 5 28 C4.09314453 27.63841797 4.09314453 27.63841797 3.16796875 27.26953125 C0.54026674 25.73078683 -0.2653349 24.35686352 -1.6875 21.6875 C-2.10386719 20.92824219 -2.52023438 20.16898438 -2.94921875 19.38671875 C-4.03398399 16.9228096 -4.57304379 14.65088195 -5 12 C-4.34 12 -3.68 12 -3 12 C-2.67 11.01 -2.34 10.02 -2 9 C-1.67 8.67 -1.34 8.34 -1 8 C-0.76924918 6.65252916 -0.58846937 5.29622435 -0.4375 3.9375 C-0.293125 2.638125 -0.14875 1.33875 0 0 Z " fill="#7F5238" transform="translate(45,68)"/>
<path d="M0 0 C1.43653931 -0.00472824 1.43653931 -0.00472824 2.90209961 -0.009552 C3.94374268 -0.00752777 4.98538574 -0.00550354 6.05859375 -0.00341797 C7.12021729 -0.00437469 8.18184082 -0.00533142 9.27563477 -0.00631714 C11.52522847 -0.00699911 13.77482412 -0.00514366 16.02441406 -0.00097656 C19.48116446 0.00437143 22.93778492 -0.00092101 26.39453125 -0.00732422 C28.57421904 -0.00666344 30.75390675 -0.00538228 32.93359375 -0.00341797 C34.49605835 -0.00645432 34.49605835 -0.00645432 36.09008789 -0.009552 C37.04778076 -0.00639984 38.00547363 -0.00324768 38.9921875 0 C39.83966553 0.00079559 40.68714355 0.00159119 41.56030273 0.00241089 C43.49609375 0.12939453 43.49609375 0.12939453 44.49609375 1.12939453 C44.62109375 3.62939453 44.62109375 3.62939453 44.49609375 6.12939453 C43.49609375 7.12939453 43.49609375 7.12939453 41.55357361 7.24964905 C40.70307938 7.24742844 39.85258514 7.24520782 38.97631836 7.24291992 C37.53493752 7.24280663 37.53493752 7.24280663 36.06443787 7.24269104 C35.01965775 7.23752975 33.97487762 7.23236847 32.8984375 7.22705078 C31.83444229 7.22563583 30.77044708 7.22422089 29.67420959 7.22276306 C26.26064292 7.21714517 22.84714075 7.20458964 19.43359375 7.19189453 C17.12565199 7.18688184 14.8177092 7.18231853 12.50976562 7.17822266 C6.83851949 7.16716993 1.16731122 7.1504144 -4.50390625 7.12939453 C-4.88523924 5.13798893 -5.21716207 3.13660376 -5.50390625 1.12939453 C-3.90338961 -0.47112211 -2.21544503 0.00207981 0 0 Z " fill="#D2B991" transform="translate(62.50390625,69.87060546875)"/>
<path d="M0 0 C1.25127686 0.01317261 1.25127686 0.01317261 2.52783203 0.02661133 C10.7753465 0.29927638 16.76907278 2.62410844 22.75 8.375 C23.36875 9.096875 23.9875 9.81875 24.625 10.5625 C21.04597344 10.5625 20.20898893 9.75849191 17.375 7.6875 C10.44440125 2.95549699 3.89849056 1.76223678 -4.375 2.5625 C-10.36595713 3.75546675 -14.7897535 5.40712036 -19.375 9.5625 C-20.035 9.5625 -20.695 9.5625 -21.375 9.5625 C-21.74625 10.366875 -21.74625 10.366875 -22.125 11.1875 C-23.375 13.5625 -23.375 13.5625 -25.375 16.4375 C-30.22060094 24.00875147 -30.10821947 31.81817889 -29.375 40.5625 C-27.83644043 46.99950058 -25.26934974 51.21196689 -20.375 55.5625 C-20.375 56.2225 -20.375 56.8825 -20.375 57.5625 C-10.5804586 62.71507865 -0.59613548 65.53374722 10.25 62.4375 C14.3877656 60.91885199 17.54979067 58.6014116 20.8984375 55.76953125 C22.625 54.5625 22.625 54.5625 25.625 54.5625 C21.09240148 60.99479054 14.80882258 63.87983822 7.625 66.5625 C-1.85755937 68.17728366 -10.96631903 65.84088088 -19.125 60.9375 C-25.88136755 56.12687081 -31.30441148 47.84594683 -32.70898438 39.60229492 C-33.55761219 29.51264664 -32.52789119 20.93902333 -26.375 12.5625 C-18.98148327 4.29755588 -11.13187466 -0.20307088 0 0 Z " fill="#40190A" transform="translate(70.375,40.4375)"/>
<path d="M0 0 C3.83627076 4.13136851 4.76034223 8.05976647 5.09765625 13.5390625 C4.89315359 18.69252956 2.86632508 22.00039414 -0.4375 25.8125 C-4.78030355 29.51977133 -7.98796795 30.46098437 -13.62109375 30.3125 C-19.22423059 29.57645575 -22.94771626 27.32210008 -26.4375 22.9375 C-29.12035498 17.89373265 -29.67350382 13.62188604 -29 8 C-27.26997562 3.1766168 -24.27843471 -0.21901744 -20 -3 C-13.08815445 -5.86007402 -5.87569674 -4.16900878 0 0 Z M-23.25 3.4375 C-26.21119449 7.77353479 -26.52499336 11.87645365 -26 17 C-24.69352364 20.77426504 -23.36459778 22.66208011 -20.4375 25.375 C-15.82959481 27.55328245 -12.00642729 28.07393393 -7 27 C-3.57374546 24.9714594 -0.79295988 22.58591977 1 19 C1.58573029 14.11397136 2.13869133 9.13324451 -0.234375 4.6875 C-2.70425416 1.75299011 -4.31472689 0.22842437 -8 -1 C-14.28611048 -1.30416664 -18.74110925 -1.44713165 -23.25 3.4375 Z " fill="#CBC180" transform="translate(242,55)"/>
<path d="M0 0 C16.45742799 -0.57187974 16.45742799 -0.57187974 22 3 C26.70548689 8.07697269 27.36204093 11.40257285 27.2734375 18.171875 C26.73338933 23.75751607 24.46387589 26.70247364 20.25 30.4375 C14.35927686 33.4933939 6.30469417 32.20841964 0 32 C0 26.39 0 20.78 0 15 C0.99 15 1.98 15 3 15 C3 19.62 3 24.24 3 29 C12.50889163 28.76040145 12.50889163 28.76040145 21 25 C23.92174313 20.39850907 23.77918452 15.2594955 23 10 C20.47429367 6.58688333 19.00086696 5.33362232 15 4 C12.43365139 3.77281504 9.88321893 3.58391816 7.3125 3.4375 C6.61060547 3.39431641 5.90871094 3.35113281 5.18554688 3.30664062 C3.45724794 3.2008264 1.7286489 3.09993419 0 3 C0 2.01 0 1.02 0 0 Z " fill="#D3CB83" transform="translate(360,52)"/>
<path d="M0 0 C0.99 0 1.98 0 3 0 C3 4.62 3 9.24 3 14 C8.94 14 14.88 14 21 14 C21 9.38 21 4.76 21 0 C21.99 0 22.98 0 24 0 C24 10.56 24 21.12 24 32 C23.01 32 22.02 32 21 32 C21 27.05 21 22.1 21 17 C15.06 17 9.12 17 3 17 C3 21.95 3 26.9 3 32 C2.01 32 1.02 32 0 32 C0 21.44 0 10.88 0 0 Z " fill="#D3C979" transform="translate(173,52)"/>
<path d="M0 0 C0.33 0 0.66 0 1 0 C1.12375 0.94875 1.2475 1.8975 1.375 2.875 C1.71687177 6.08667191 1.71687177 6.08667191 4 8 C4.66 7.34 5.32 6.68 6 6 C6.00257812 6.72703125 6.00515625 7.4540625 6.0078125 8.203125 C6.33540604 16.7205571 8.82995975 22.65541983 13 30 C13.53367187 31.13115234 13.53367187 31.13115234 14.078125 32.28515625 C15.30850109 34.57386432 16.68047885 34.87337544 19 36 C20.70496537 37.62746694 22.37897032 39.28891311 24 41 C23.67 41.66 23.34 42.32 23 43 C22.01 43 21.02 43 20 43 C20 41.68 20 40.36 20 39 C19.01 39 18.02 39 17 39 C17 39.66 17 40.32 17 41 C10.56423978 39.29641641 7.05733088 33.94664528 3.75 28.5 C0.39200241 21.78400483 -0.27914574 15.91999451 -0.125 8.5625 C-0.11597656 7.73556641 -0.10695313 6.90863281 -0.09765625 6.05664062 C-0.07431512 4.03763292 -0.03845288 2.01877644 0 0 Z " fill="#AD8356" transform="translate(32,64)"/>
<path d="M0 0 C3.625 1.5 3.625 1.5 6 3 C6 3.99 6 4.98 6 6 C5.21625 5.67 4.4325 5.34 3.625 5 C-1.00680374 3.72226104 -5.22782314 3.34671369 -10 4 C-13.65771154 6.13366507 -15.39849715 8.14246704 -17 12 C-17.7164344 17.04836331 -17.54701546 20.94369429 -15.1875 25.5 C-12.5053303 28.5653368 -11.01586054 29.92451414 -6.8984375 30.23046875 C-5.73570312 30.21628906 -4.57296875 30.20210937 -3.375 30.1875 C-1.62316406 30.17783203 -1.62316406 30.17783203 0.1640625 30.16796875 C2.90048577 30.32086825 2.90048577 30.32086825 4 29 C4.23481693 26.81707226 4.41363323 24.62796826 4.5625 22.4375 C4.64628906 21.23996094 4.73007812 20.04242188 4.81640625 18.80859375 C4.90728516 17.41833984 4.90728516 17.41833984 5 16 C5.99 16 6.98 16 8 16 C8 20.95 8 25.9 8 31 C0.92292404 34.03303256 -4.08902301 35.19317942 -11.6875 32.875 C-15.84727408 30.5204109 -19.09949272 27.82197185 -20.61328125 23.078125 C-21.72370849 17.11098067 -21.77311632 11.74121743 -18.31640625 6.57421875 C-13.1554002 0.40245188 -7.96323338 -1.25528802 0 0 Z " fill="#DAD289" transform="translate(422,51)"/>
<path d="M0 0 C6.48175259 2.24419132 12.79270357 6.57032717 17.48046875 11.5390625 C16.66796875 13.4765625 16.66796875 13.4765625 15.48046875 15.5390625 C14.49046875 15.8690625 13.50046875 16.1990625 12.48046875 16.5390625 C11.86171875 15.8171875 11.24296875 15.0953125 10.60546875 14.3515625 C3.95768339 7.66568095 -4.70785145 5.5638936 -13.76953125 4.9765625 C-15.0328125 4.89277344 -16.29609375 4.80898438 -17.59765625 4.72265625 C-18.561875 4.66207031 -19.52609375 4.60148437 -20.51953125 4.5390625 C-20.51953125 3.2190625 -20.51953125 1.8990625 -20.51953125 0.5390625 C-15.26172335 -2.08984145 -5.62799504 -1.0296177 0 0 Z " fill="#E2D5AD" transform="translate(82.51953125,35.4609375)"/>
<path d="M0 0 C2.39386631 1.10449673 3.96051544 2.28253932 6 4 C5.67 4.99 5.34 5.98 5 7 C4.195625 6.505 3.39125 6.01 2.5625 5.5 C-1.80194072 3.66234075 -5.32767931 3.21553287 -10 4 C-13.61647497 6.15449573 -15.41118414 8.15631447 -17 12 C-17.7121481 17.01815989 -17.52912753 20.94174495 -15.25 25.5 C-12.62278232 28.41913076 -10.69212417 29.77060993 -6.78125 30.30078125 C-2.14950589 30.32457446 0.45887013 30.26873526 4 27 C4.99 27 5.98 27 7 27 C6.00449135 29.6245228 5.06036546 30.95028727 2.875 32.75 C-2.3394831 35.01716656 -6.50379684 34.47379767 -11.75 32.8125 C-15.98413259 30.45115682 -17.92910668 27.92760798 -20.25 23.75 C-21.69518953 18.45097171 -21.97870762 13.24516348 -19.4375 8.25 C-14.62195453 1.05185015 -8.58763579 -1.59343653 0 0 Z " fill="#D5CF89" transform="translate(302,51)"/>
<path d="M0 0 C0.66 0 1.32 0 2 0 C2.66 0.99 3.32 1.98 4 3 C6.19454681 3.57993699 6.19454681 3.57993699 8.625 3.6875 C9.44226563 3.75324219 10.25953125 3.81898437 11.1015625 3.88671875 C11.72804688 3.92410156 12.35453125 3.96148437 13 4 C13.05416188 5.60379341 13.09286638 7.20811406 13.125 8.8125 C13.14820313 9.70582031 13.17140625 10.59914063 13.1953125 11.51953125 C13 14 13 14 11 17 C7.875 17.1875 7.875 17.1875 5 17 C5 16.67 5 16.34 5 16 C6.65 15.67 8.3 15.34 10 15 C10 14.34 10 13.68 10 13 C8.02 13 6.04 13 4 13 C3.67 13.99 3.34 14.98 3 16 C2.278125 15.67 1.55625 15.34 0.8125 15 C-2.01697427 13.99396471 -4.02895466 13.83022598 -7 14 C-7.33 13.34 -7.66 12.68 -8 12 C-6.68 12 -5.36 12 -4 12 C-4.680625 11.4225 -5.36125 10.845 -6.0625 10.25 C-6.701875 9.5075 -7.34125 8.765 -8 8 C-7.75 5.75 -7.75 5.75 -7 4 C-5.02 4 -3.04 4 -1 4 C-0.67 2.68 -0.34 1.36 0 0 Z " fill="#6F6A58" transform="translate(271,94)"/>
<path d="M0 0 C3.5 1.5 3.5 1.5 6 3 C6 4.32 6 5.64 6 7 C5.195625 6.505 4.39125 6.01 3.5625 5.5 C-0.80194072 3.66234075 -4.32767931 3.21553287 -9 4 C-12.61968216 6.1564064 -14.39674918 8.1606362 -16 12 C-16.78778935 17.62706678 -16.20098795 22.19851807 -13 27 C-10.00726969 29.7324929 -8.03467469 30.41190251 -4 30.375 C-3.154375 30.38273437 -2.30875 30.39046875 -1.4375 30.3984375 C1.44906793 29.92659466 2.73372624 28.78469059 5 27 C5.99 27 6.98 27 8 27 C6.97386916 29.97577944 6.03368909 30.97754061 3.375 32.75 C-1.47392646 34.54589869 -5.42652046 35.11870399 -10.18359375 33.05078125 C-15.0115312 30.24260479 -17.68410613 27.46917475 -19.6875 22.1875 C-20.64318433 15.49770972 -20.46348608 11.35449699 -16.546875 5.765625 C-11.90290874 0.46493624 -6.81991816 -0.75776868 0 0 Z " fill="#DED68D" transform="translate(150,51)"/>
<path d="M0 0 C0 1.65 0 3.3 0 5 C1.65 5 3.3 5 5 5 C6.20272819 7.40545638 6.10071472 8.94996953 6.0625 11.625 C6.05347656 12.44226563 6.04445312 13.25953125 6.03515625 14.1015625 C6.02355469 14.72804688 6.01195312 15.35453125 6 16 C4.02 16.99 2.04 17.98 0 19 C0 18.01 0 17.02 0 16 C-0.66 15.67 -1.32 15.34 -2 15 C-2.33 15.66 -2.66 16.32 -3 17 C-3 13.7 -3 10.4 -3 7 C-5.35785318 7.89335797 -5.35785318 7.89335797 -6.125 11.0625 C-6.41375 12.031875 -6.7025 13.00125 -7 14 C-7.99 13.67 -8.98 13.34 -10 13 C-11.1875 9.9375 -11.1875 9.9375 -12 7 C-12.66 9.31 -13.32 11.62 -14 14 C-14.99 14 -15.98 14 -17 14 C-19.27678571 5.96428571 -19.27678571 5.96428571 -18 2 C-17.01 4.31 -16.02 6.62 -15 9 C-14.34 6.36 -13.68 3.72 -13 1 C-12.01 1.33 -11.02 1.66 -10 2 C-8.8125 5.0625 -8.8125 5.0625 -8 8 C-7.566875 6.865625 -7.13375 5.73125 -6.6875 4.5625 C-6.130625 3.386875 -5.57375 2.21125 -5 1 C-2 0 -2 0 0 0 Z " fill="#0A0805" transform="translate(204,93)"/>
<path d="M0 0 C3.72857126 0.50192305 7.36469171 1.03058446 11 2 C12.66519519 2.34060811 14.33157466 2.67558396 16 3 C16.84181413 6.15680299 17 8.72572803 17 12 C9.25 13.125 9.25 13.125 7 12 C4.67085177 11.63858045 2.33746522 11.30300475 0 11 C-1.28571429 3.57142857 -1.28571429 3.57142857 0 0 Z " fill="#241F0C" transform="translate(318,96)"/>
<path d="M0 0 C0.33 0 0.66 0 1 0 C1.02578125 0.845625 1.0515625 1.69125 1.078125 2.5625 C1.55735714 12.14714279 2.87510743 18.08360815 9.75 24.875 C10.36359375 25.42929688 10.9771875 25.98359375 11.609375 26.5546875 C13 28 13 28 13 30 C13.66 30.33 14.32 30.66 15 31 C8.375 32.25 8.375 32.25 5 30 C5 29.34 5 28.68 5 28 C4.09314453 27.63841797 4.09314453 27.63841797 3.16796875 27.26953125 C0.54026674 25.73078683 -0.2653349 24.35686352 -1.6875 21.6875 C-2.10386719 20.92824219 -2.52023438 20.16898438 -2.94921875 19.38671875 C-4.03398399 16.9228096 -4.57304379 14.65088195 -5 12 C-4.34 12 -3.68 12 -3 12 C-2.67 11.01 -2.34 10.02 -2 9 C-1.67 8.67 -1.34 8.34 -1 8 C-0.76924918 6.65252916 -0.58846937 5.29622435 -0.4375 3.9375 C-0.293125 2.638125 -0.14875 1.33875 0 0 Z " fill="#83573C" transform="translate(45,68)"/>
<path d="M0 0 C0 0.66 0 1.32 0 2 C3.465 1.505 3.465 1.505 7 1 C7.33 2.65 7.66 4.3 8 6 C6.02 6 4.04 6 2 6 C2.33 6.66 2.66 7.32 3 8 C5.52733235 8.65555119 5.52733235 8.65555119 8 9 C8 9.33 8 9.66 8 10 C4.6875 10.25 4.6875 10.25 1 10 C-0.9375 8 -0.9375 8 -2 6 C-2.66 7.32 -3.32 8.64 -4 10 C-4.66 10 -5.32 10 -6 10 C-6.33 8.68 -6.66 7.36 -7 6 C-9.31 6 -11.62 6 -14 6 C-13.67 6.66 -13.34 7.32 -13 8 C-10.47266765 8.65555119 -10.47266765 8.65555119 -8 9 C-8.33 9.66 -8.66 10.32 -9 11 C-11.97 10.505 -11.97 10.505 -15 10 C-15.625 6.625 -15.625 6.625 -16 3 C-11.47351306 -1.52648694 -5.91286711 -1.20670757 0 0 Z " fill="#140E03" transform="translate(228,97)"/>
<path d="M0 0 C2.5 0.25 2.5 0.25 4.5 2.25 C4.83 1.59 5.16 0.93 5.5 0.25 C7.49954746 0.20745644 9.50041636 0.20919217 11.5 0.25 C12.5 1.25 12.5 1.25 12.59765625 3.31640625 C12.58605469 4.14011719 12.57445312 4.96382813 12.5625 5.8125 C12.55347656 6.63878906 12.54445313 7.46507813 12.53515625 8.31640625 C12.52355469 8.95449219 12.51195312 9.59257813 12.5 10.25 C9.07767028 11.39077657 6.41326783 11.34815117 2.8125 11.3125 C1.04326172 11.29896484 1.04326172 11.29896484 -0.76171875 11.28515625 C-1.66535156 11.27355469 -2.56898438 11.26195313 -3.5 11.25 C-5.00662097 8.23675805 -4.67770373 5.56713623 -4.5 2.25 C-2.5 0.25 -2.5 0.25 0 0 Z " fill="#282411" transform="translate(376.5,97.75)"/>
<path d="M0 0 C1.25127686 0.01317261 1.25127686 0.01317261 2.52783203 0.02661133 C10.7753465 0.29927638 16.76907278 2.62410844 22.75 8.375 C23.36875 9.096875 23.9875 9.81875 24.625 10.5625 C21.04597344 10.5625 20.20898893 9.75849191 17.375 7.6875 C10.44440125 2.95549699 3.89849056 1.76223678 -4.375 2.5625 C-10.36595713 3.75546675 -14.7897535 5.40712036 -19.375 9.5625 C-20.035 9.5625 -20.695 9.5625 -21.375 9.5625 C-21.74625 10.366875 -21.74625 10.366875 -22.125 11.1875 C-23.375 13.5625 -23.375 13.5625 -25.375 16.4375 C-29.65699375 23.12811523 -29.89810058 29.8066094 -30.375 37.5625 C-30.705 37.5625 -31.035 37.5625 -31.375 37.5625 C-32.89343555 29.0040451 -32.66915567 22.92720102 -28.3125 15.29296875 C-21.29961405 5.40988956 -12.11356771 -0.22097921 0 0 Z " fill="#452918" transform="translate(70.375,40.4375)"/>
<path d="M0 0 C13.86 0 27.72 0 42 0 C41.67 1.32 41.34 2.64 41 4 C27.14 3.67 13.28 3.34 -1 3 C-0.67 2.01 -0.34 1.02 0 0 Z " fill="#FAD49A" transform="translate(62,71)"/>
<path d="M0 0 C0.66 0 1.32 0 2 0 C2 0.66 2 1.32 2 2 C2.556875 1.79375 3.11375 1.5875 3.6875 1.375 C6.659538 0.89304789 8.31979941 1.73434972 11 3 C9.68 3.33 8.36 3.66 7 4 C7.680625 4.5775 8.36125 5.155 9.0625 5.75 C10.0215625 6.86375 10.0215625 6.86375 11 8 C10.80984746 10.21844626 10.58477845 11.41522155 9 13 C3.26388889 13.27314815 3.26388889 13.27314815 1 13 C-1.2328877 10.7671123 -1.36778152 10.08090185 -1.75 7.0625 C-1.84796875 6.37285156 -1.9459375 5.68320313 -2.046875 4.97265625 C-2 3 -2 3 0 0 Z " fill="#211A0B" transform="translate(338,95)"/>
<path d="M0 0 C-0.51716499 2.58582494 -1.28755692 4.60011879 -2.4375 7 C-4.69767812 12.06324217 -5.23938057 17.55038552 -6 23 C-7.32 23 -8.64 23 -10 23 C-10.57798165 7.75840979 -10.57798165 7.75840979 -7 1 C-4 0 -4 0 0 0 Z " fill="#A0724E" transform="translate(50,57)"/>
<path d="M0 0 C0.99 0 1.98 0 3 0 C3 4.95 3 9.9 3 15 C8.94 15 14.88 15 21 15 C21 15.33 21 15.66 21 16 C15.06 16 9.12 16 3 16 C3 21.28 3 26.56 3 32 C2.01 32 1.02 32 0 32 C0 21.44 0 10.88 0 0 Z " fill="#D8D08A" transform="translate(173,52)"/>
<path d="M0 0 C2.125 0.375 2.125 0.375 4 1 C2.73046875 2.46484375 1.4609375 3.9296875 0.19140625 5.39453125 C-2.59984221 9.15585295 -2.44157101 13.52484764 -2 18 C-0.96963966 21.3486711 -0.12653213 23.28652965 2.875 25.1875 C4.25259383 25.87629691 5.64850337 26.53003555 7.0625 27.140625 C9 28 9 28 12 30 C7.49793855 30.310487 4.87860856 30.40551164 0.75 28.5 C-3.90102264 24.2717976 -6.1765861 19.75485147 -6.5 13.4375 C-6.2503592 7.88779298 -3.92391143 3.92391143 0 0 Z " fill="#D9D18A" transform="translate(219,54)"/>
<path d="M0 0 C0.33 0 0.66 0 1 0 C1.12375 0.94875 1.2475 1.8975 1.375 2.875 C1.71687177 6.08667191 1.71687177 6.08667191 4 8 C4.66 7.34 5.32 6.68 6 6 C6.06058594 6.78503906 6.12117188 7.57007812 6.18359375 8.37890625 C6.70803802 15.24859819 6.70803802 15.24859819 7.6875 22.0625 C8 25 8 25 6 28 C5.54625 27.21625 5.0925 26.4325 4.625 25.625 C3.11571258 22.96301969 3.11571258 22.96301969 1 21 C0.07811539 18.23434618 -0.11785222 16.61716298 -0.09765625 13.76953125 C-0.09282227 12.56586914 -0.09282227 12.56586914 -0.08789062 11.33789062 C-0.07951172 10.50451172 -0.07113281 9.67113281 -0.0625 8.8125 C-0.05798828 7.96751953 -0.05347656 7.12253906 -0.04882812 6.25195312 C-0.03705403 4.16793845 -0.0191189 2.08396023 0 0 Z " fill="#C5A075" transform="translate(32,64)"/>
<path d="M0 0 C1.95803507 -0.05389087 3.91648909 -0.09274217 5.875 -0.125 C7.51082031 -0.15980469 7.51082031 -0.15980469 9.1796875 -0.1953125 C12 0 12 0 14 2 C14.26991906 4.68839385 14.08737357 7.29141936 14 10 C13.21625 9.979375 12.4325 9.95875 11.625 9.9375 C9.01885039 9.81315937 9.01885039 9.81315937 7 11 C6.34 10.67 5.68 10.34 5 10 C5 7.03 5 4.06 5 1 C4.01 1.495 4.01 1.495 3 2 C2.59270772 4.32156597 2.25561323 6.6568787 2 9 C1.34 9 0.68 9 0 9 C0 6.03 0 3.06 0 0 Z " fill="#716D4B" transform="translate(392,98)"/>
<path d="M0 0 C6.61167322 1.6529183 12.21804408 5.32706612 16 11 C14.35 12.32 12.7 13.64 11 15 C10.38125 14.2575 9.7625 13.515 9.125 12.75 C5.50220244 9.06419726 0.78996079 7.66486016 -4 6 C-4 5.67 -4 5.34 -4 5 C-0.535 4.505 -0.535 4.505 3 4 C2.01 2.68 1.02 1.36 0 0 Z " fill="#A37B52" transform="translate(79,43)"/>
<path d="M0 0 C0.99 0.66 1.98 1.32 3 2 C3.99 2.33 4.98 2.66 6 3 C5.73445313 3.54527344 5.46890625 4.09054688 5.1953125 4.65234375 C2.67845156 10.02593372 1.04873594 15.16295654 0 21 C-2 20.0625 -2 20.0625 -4 18 C-5.19137777 11.82991726 -3.49836635 6.59634062 -1 1 C-0.67 0.67 -0.34 0.34 0 0 Z " fill="#D6BB8F" transform="translate(37,53)"/>
<path d="M0 0 C0.99 0 1.98 0 3 0 C3 10.56 3 21.12 3 32 C2.01 32 1.02 32 0 32 C0 21.44 0 10.88 0 0 Z " fill="#D5CC8D" transform="translate(262,52)"/>
<path d="M0 0 C0.66 0 1.32 0 2 0 C2 4.95 2 9.9 2 15 C-0.31 15 -2.62 15 -5 15 C-7 13 -7 13 -7.25 10 C-7 7 -7 7 -5 5 C-3.68 5 -2.36 5 -1 5 C-0.67 3.35 -0.34 1.7 0 0 Z " fill="#9F9C6A" transform="translate(362,93)"/>
<path d="M0 0 C4.29 0 8.58 0 13 0 C14.4783226 2.95664519 14.06032783 5.74229737 14 9 C13.34 9 12.68 9 12 9 C11.67 6.69 11.34 4.38 11 2 C10.34 2 9.68 2 9 2 C8.67 4.31 8.34 6.62 8 9 C5.36 9 2.72 9 0 9 C0 6.03 0 3.06 0 0 Z " fill="#160E03" transform="translate(301,98)"/>
<path d="M0 0 C1.28132813 0.00902344 2.56265625 0.01804688 3.8828125 0.02734375 C4.87023437 0.03894531 5.85765625 0.05054688 6.875 0.0625 C6.875 0.7225 6.875 1.3825 6.875 2.0625 C8.195 2.0625 9.515 2.0625 10.875 2.0625 C10.545 3.0525 10.215 4.0425 9.875 5.0625 C3.605 5.0625 -2.665 5.0625 -9.125 5.0625 C-9.125 3.7425 -9.125 2.4225 -9.125 1.0625 C-6.12186252 -0.43906874 -3.33432478 -0.03031204 0 0 Z " fill="#F5E9BC" transform="translate(71.125,34.9375)"/>
<path d="M0 0 C0 0.33 0 0.66 0 1 C-1.60875 1.309375 -1.60875 1.309375 -3.25 1.625 C-7.7541826 3.27653362 -8.60395838 4.97807299 -11 9 C-11.99 9.33 -12.98 9.66 -14 10 C-14.22893297 13.03336186 -14.36475845 15.97465051 -14 19 C-12.17728073 21.12355567 -12.17728073 21.12355567 -10 22 C-10.66 23.32 -11.32 24.64 -12 26 C-16.15428562 21.0416591 -17.35764337 17.65366794 -17.28515625 11.28515625 C-16.7382313 6.90226452 -14.15806708 4.2867412 -11.3125 1.125 C-7.66574774 -0.64909569 -3.98371984 -0.22982999 0 0 Z " fill="#231B06" transform="translate(150,54)"/>
<path d="M0 0 C0.66 0 1.32 0 2 0 C2 4.62 2 9.24 2 14 C-4.15234375 14.09765625 -4.15234375 14.09765625 -6 14 C-7 13 -7 13 -7.1875 10.0625 C-7 7 -7 7 -5 5 C-3.68 5 -2.36 5 -1 5 C-0.67 3.35 -0.34 1.7 0 0 Z " fill="#B3AD8B" transform="translate(249,93)"/>
<path d="M0 0 C0.33 0 0.66 0 1 0 C1 1.65 1 3.3 1 5 C1.66 5 2.32 5 3 5 C3 3.35 3 1.7 3 0 C3.33 0 3.66 0 4 0 C3.7499122 6.32722141 3.42287899 11.1115548 -1 16 C-6.38971292 20.01586453 -10.37642817 20.54069974 -17 20 C-15 17 -15 17 -13.01171875 16.48046875 C-12.24472656 16.38378906 -11.47773438 16.28710938 -10.6875 16.1875 C-7.03323691 15.45782428 -5.97422025 14.9779798 -3 12.4375 C-0.5512561 8.22872142 -0.11732408 4.79962127 0 0 Z " fill="#C5BC7A" transform="translate(243,65)"/>
<path d="M0 0 C0.99 0.33 1.98 0.66 3 1 C4.1875 4.0625 4.1875 4.0625 5 7 C5.99 4.69 6.98 2.38 8 0 C9.18414294 3.55242882 8.69535532 4.69830562 7.5625 8.1875 C7.27503906 9.08855469 6.98757812 9.98960938 6.69140625 10.91796875 C6.46324219 11.60503906 6.23507813 12.29210937 6 13 C5.01 12.67 4.02 12.34 3 12 C1.8125 8.9375 1.8125 8.9375 1 6 C0.34 8.31 -0.32 10.62 -1 13 C-1.99 13 -2.98 13 -4 13 C-6.27678571 4.96428571 -6.27678571 4.96428571 -5 1 C-4.01 3.31 -3.02 5.62 -2 8 C-1.34 5.36 -0.68 2.72 0 0 Z " fill="#BBB888" transform="translate(191,94)"/>
<path d="M0 0 C0.66 0.33 1.32 0.66 2 1 C2.32466894 3.40745084 2.51792233 5.70510063 2.625 8.125 C2.68083252 9.18859741 2.68083252 9.18859741 2.73779297 10.27368164 C3.08450161 17.49464801 3.34063386 24.77655844 3 32 C2 33 2 33 -1.0625 33.0625 C-2.031875 33.041875 -3.00125 33.02125 -4 33 C-4.33 32.34 -4.66 31.68 -5 31 C-4.01 29.515 -4.01 29.515 -3 28 C-3 29.32 -3 30.64 -3 32 C-2.01 32 -1.02 32 0 32 C0 21.44 0 10.88 0 0 Z " fill="#322B0B" transform="translate(197,52)"/>
<path d="M0 0 C0.66 0.33 1.32 0.66 2 1 C1.67 1.66 1.34 2.32 1 3 C1.66 3.33 2.32 3.66 3 4 C2.67 5.65 2.34 7.3 2 9 C0.02 9 -1.96 9 -4 9 C-3.79375 9.5775 -3.5875 10.155 -3.375 10.75 C-2.91338739 13.51967567 -3.57055055 14.64561267 -5 17 C-6.65 17 -8.3 17 -10 17 C-8.68 16.67 -7.36 16.34 -6 16 C-6.680625 15.4225 -7.36125 14.845 -8.0625 14.25 C-8.701875 13.5075 -9.34125 12.765 -10 12 C-9.75 9.75 -9.75 9.75 -9 8 C-7.02 7.67 -5.04 7.34 -3 7 C-2.814375 5.5459375 -2.814375 5.5459375 -2.625 4.0625 C-2.41875 3.051875 -2.2125 2.04125 -2 1 C-1.34 0.67 -0.68 0.34 0 0 Z " fill="#777456" transform="translate(418,90)"/>
<path d="M0 0 C0.33 0 0.66 0 1 0 C1.04898438 0.85722656 1.09796875 1.71445313 1.1484375 2.59765625 C1.54534244 8.66756456 1.99208399 14.24397411 4 20 C2.35 20.66 0.7 21.32 -1 22 C-3.19097652 18.6659053 -4.43454163 15.95820859 -5 12 C-4.34 12 -3.68 12 -3 12 C-2.67 11.01 -2.34 10.02 -2 9 C-1.67 8.67 -1.34 8.34 -1 8 C-0.76924918 6.65252916 -0.58846937 5.29622435 -0.4375 3.9375 C-0.293125 2.638125 -0.14875 1.33875 0 0 Z " fill="#895D41" transform="translate(45,68)"/>
<path d="M0 0 C3.375 -0.125 3.375 -0.125 7 0 C9 2 9 2 9.1953125 4.1640625 C9.17210937 4.97617188 9.14890625 5.78828125 9.125 6.625 C9.10695313 7.44226563 9.08890625 8.25953125 9.0703125 9.1015625 C9.03550781 10.04128906 9.03550781 10.04128906 9 11 C7.35 10.67 5.7 10.34 4 10 C4.33 7.69 4.66 5.38 5 3 C4.34 3 3.68 3 3 3 C3 4.98 3 6.96 3 9 C2.01 9 1.02 9 0 9 C0 6.03 0 3.06 0 0 Z " fill="#2F2B0C" transform="translate(286,98)"/>
<path d="M0 0 C1.04449911 3.13349732 0.93423645 3.98968256 0 7 C0.66 7.33 1.32 7.66 2 8 C1.67 8.66 1.34 9.32 1 10 C0.01 10 -0.98 10 -2 10 C-2.66 10.66 -3.32 11.32 -4 12 C-6.125 11.625 -6.125 11.625 -8 11 C-8.33 11.66 -8.66 12.32 -9 13 C-9 12.34 -9 11.68 -9 11 C-9.99 11.33 -10.98 11.66 -12 12 C-14.41015625 11.9140625 -14.41015625 11.9140625 -17.0625 11.625 C-17.94035156 11.53476563 -18.81820312 11.44453125 -19.72265625 11.3515625 C-22 11 -22 11 -24 10 C-24 9.34 -24 8.68 -24 8 C-23.360625 8.165 -22.72125 8.33 -22.0625 8.5 C-16.78967584 9.36086925 -11.91525085 9.97800043 -7.0625 7.5 C-6.381875 7.005 -5.70125 6.51 -5 6 C-4.34 6 -3.68 6 -3 6 C-2.690625 5.195625 -2.38125 4.39125 -2.0625 3.5625 C-1 1 -1 1 0 0 Z " fill="#080203" transform="translate(245,75)"/>
<path d="M0 0 C1.32 0.99 2.64 1.98 4 3 C2.54494569 6.39512672 0.92031741 8.71110257 -2 11 C-5.75 11.75 -5.75 11.75 -9 12 C-8.52575143 7.73176286 -6.04238597 5.82507269 -3 3 C-2.401875 2.401875 -1.80375 1.80375 -1.1875 1.1875 C-0.795625 0.795625 -0.40375 0.40375 0 0 Z " fill="#B08559" transform="translate(96,95)"/>
<path d="M0 0 C0.99 0 1.98 0 3 0 C3 4.95 3 9.9 3 15 C6.3 15 9.6 15 13 15 C8.0811341 17.45943295 5.41699411 17.15932336 0 17 C0 11.39 0 5.78 0 0 Z " fill="#E1D88C" transform="translate(360,67)"/>
<path d="M0 0 C15.92938497 -0.55353075 15.92938497 -0.55353075 22 3 C21.01 3.495 21.01 3.495 20 4 C19.67 4.66 19.34 5.32 19 6 C18.24976563 5.52433594 18.24976563 5.52433594 17.484375 5.0390625 C14.12758852 3.6351235 10.83713706 3.53774346 7.25 3.375 C6.55261719 3.33632813 5.85523438 3.29765625 5.13671875 3.2578125 C3.42489182 3.16401376 1.71248318 3.08093826 0 3 C0 2.01 0 1.02 0 0 Z " fill="#C7C07B" transform="translate(360,52)"/>
<path d="M0 0 C6.93 0 13.86 0 21 0 C21 0.99 21 1.98 21 3 C14.07 3 7.14 3 0 3 C0 2.01 0 1.02 0 0 Z " fill="#BFB979" transform="translate(324,81)"/>
<path d="M0 0 C2.31 0.33 4.62 0.66 7 1 C7 3.64 7 6.28 7 9 C4.69 9.33 2.38 9.66 0 10 C-0.33 9.34 -0.66 8.68 -1 8 C0.32 8 1.64 8 3 8 C2.319375 7.4225 1.63875 6.845 0.9375 6.25 C0.298125 5.5075 -0.34125 4.765 -1 4 C-0.75 1.75 -0.75 1.75 0 0 Z " fill="#1E190A" transform="translate(264,98)"/>
<path d="M0 0 C2 2 2 2 3 5 C3.99 3.68 4.98 2.36 6 1 C10.06153846 7.27692308 10.06153846 7.27692308 9.75 10.9375 C9.5025 11.618125 9.255 12.29875 9 13 C3.26314104 10.78348631 1.4306922 8.44475054 -1 3 C-0.67 2.01 -0.34 1.02 0 0 Z " fill="#AE8B64" transform="translate(35,86)"/>
<path d="M0 0 C6.6 0 13.2 0 20 0 C20 0.99 20 1.98 20 3 C13.4 3 6.8 3 0 3 C0 2.01 0 1.02 0 0 Z " fill="#C4BC7C" transform="translate(448,81)"/>
<path d="M0 0 C6.6 0 13.2 0 20 0 C20 0.99 20 1.98 20 3 C13.4 3 6.8 3 0 3 C0 2.01 0 1.02 0 0 Z " fill="#C0B97C" transform="translate(324,52)"/>
<path d="M0 0 C6.27 0 12.54 0 19 0 C19 0.99 19 1.98 19 3 C12.73 3 6.46 3 0 3 C0 2.01 0 1.02 0 0 Z " fill="#C8C085" transform="translate(324,66)"/>
<path d="M0 0 C6.27 0 12.54 0 19 0 C19 0.99 19 1.98 19 3 C12.73 3 6.46 3 0 3 C0 2.01 0 1.02 0 0 Z " fill="#C1BD7B" transform="translate(448,52)"/>
<path d="M0 0 C0.5775 0.226875 1.155 0.45375 1.75 0.6875 C0.821875 0.996875 -0.10625 1.30625 -1.0625 1.625 C-5.00285617 4.17464223 -5.56712404 6.02002407 -6.80078125 10.3984375 C-7.34823108 13.18805141 -7.31913655 15.8529014 -7.25 18.6875 C-7.91 19.3475 -8.57 20.0075 -9.25 20.6875 C-11.10490641 16.97768719 -10.7040091 12.73626607 -10.25 8.6875 C-8.14824824 4.55905904 -5.22806715 -0.72612044 0 0 Z " fill="#201606" transform="translate(294.25,54.3125)"/>
<path d="M0 0 C5.94 0 11.88 0 18 0 C18 0.99 18 1.98 18 3 C12.06 3 6.12 3 0 3 C0 2.01 0 1.02 0 0 Z " fill="#CCC283" transform="translate(448,66)"/>
<path d="M0 0 C7.38461538 -0.49230769 7.38461538 -0.49230769 10.5 2 C10.995 2.66 11.49 3.32 12 4 C11 5 11 5 9.14233398 5.11352539 C8.35157471 5.10828857 7.56081543 5.10305176 6.74609375 5.09765625 C5.89208984 5.09443359 5.03808594 5.09121094 4.15820312 5.08789062 C3.26037109 5.07951172 2.36253906 5.07113281 1.4375 5.0625 C0.53580078 5.05798828 -0.36589844 5.05347656 -1.29492188 5.04882812 C-3.53001314 5.03700225 -5.76497437 5.0205222 -8 5 C-8 4.67 -8 4.34 -8 4 C-2.555 3.01 -2.555 3.01 3 2 C2.01 1.34 1.02 0.68 0 0 Z " fill="#B5875C" transform="translate(71,43)"/>
<path d="M0 0 C0.78375 0.04125 1.5675 0.0825 2.375 0.125 C2.705 1.775 3.035 3.425 3.375 5.125 C1.395 5.125 -0.585 5.125 -2.625 5.125 C-2.295 5.785 -1.965 6.445 -1.625 7.125 C0.90233235 7.78055119 0.90233235 7.78055119 3.375 8.125 C3.045 8.785 2.715 9.445 2.375 10.125 C-0.595 9.63 -0.595 9.63 -3.625 9.125 C-4.25 5.75 -4.25 5.75 -4.625 2.125 C-2.625 0.125 -2.625 0.125 0 0 Z " fill="#979269" transform="translate(216.625,97.875)"/>
<path d="M0 0 C4.43424975 0.07069094 7.44280134 0.90795348 11.25 3.3125 C11.25 4.3025 11.25 5.2925 11.25 6.3125 C10.5075 6.02375 9.765 5.735 9 5.4375 C3.82841343 3.88602403 -1.41907548 3.1233526 -6.75 2.3125 C-4.26997407 -0.16752593 -3.42167487 0.01555307 0 0 Z " fill="#C8C27C" transform="translate(416.75,50.6875)"/>
<path d="M0 0 C1.6662553 0.0370279 3.33401319 0.04759962 5 0 C3.02 0.99 3.02 0.99 1 2 C1 2.99 1 3.98 1 5 C1.99 5.66 2.98 6.32 4 7 C4 8.32 4 9.64 4 11 C2.02 11 0.04 11 -2 11 C-2.0825 9.741875 -2.165 8.48375 -2.25 7.1875 C-2.66557143 3.66188788 -2.66557143 3.66188788 -5.0625 1 C-5.701875 0.67 -6.34125 0.34 -7 0 C-4.30493528 -1.34753236 -2.91558912 -0.61023958 0 0 Z " fill="#1F190A" transform="translate(408,97)"/>
<path d="M0 0 C5.00936665 0.07259952 7.45846937 1.1821321 11.25 4.375 C10.92 5.365 10.59 6.355 10.25 7.375 C9.486875 6.92125 8.72375 6.4675 7.9375 6 C3.35327347 3.66922458 -1.7158162 3.13639791 -6.75 2.375 C-4.28003576 -0.09496424 -3.41102667 0.05168222 0 0 Z " fill="#BCB773" transform="translate(296.75,50.625)"/>
<path d="M0 0 C0.99 0 1.98 0 3 0 C3 4.95 3 9.9 3 15 C1.68 15.33 0.36 15.66 -1 16 C-0.67 10.72 -0.34 5.44 0 0 Z " fill="#DCD383" transform="translate(427,67)"/>
<path d="M0 0 C0.78375 0.04125 1.5675 0.0825 2.375 0.125 C2.705 1.775 3.035 3.425 3.375 5.125 C1.395 5.125 -0.585 5.125 -2.625 5.125 C-2.295 5.785 -1.965 6.445 -1.625 7.125 C0.90233235 7.78055119 0.90233235 7.78055119 3.375 8.125 C3.375 8.455 3.375 8.785 3.375 9.125 C1.065 9.125 -1.245 9.125 -3.625 9.125 C-4.25 5.75 -4.25 5.75 -4.625 2.125 C-2.625 0.125 -2.625 0.125 0 0 Z " fill="#979373" transform="translate(257.625,97.875)"/>
<path d="M0 0 C0.78375 0.04125 1.5675 0.0825 2.375 0.125 C2.705 1.775 3.035 3.425 3.375 5.125 C1.395 5.125 -0.585 5.125 -2.625 5.125 C-2.295 5.785 -1.965 6.445 -1.625 7.125 C0.90233235 7.78055119 0.90233235 7.78055119 3.375 8.125 C3.375 8.455 3.375 8.785 3.375 9.125 C1.065 9.125 -1.245 9.125 -3.625 9.125 C-4.25 5.75 -4.25 5.75 -4.625 2.125 C-2.625 0.125 -2.625 0.125 0 0 Z " fill="#9C976F" transform="translate(232.625,97.875)"/>
<path d="M0 0 C1.32 0.66 2.64 1.32 4 2 C4.02505615 2.9286084 4.0501123 3.8572168 4.07592773 4.81396484 C4.17097932 8.25435804 4.27021707 11.69457713 4.37231445 15.13476562 C4.41566589 16.62462641 4.45734084 18.11453695 4.49731445 19.60449219 C4.55501215 21.74429327 4.61870755 23.88384385 4.68359375 26.0234375 C4.72025146 27.31169434 4.75690918 28.59995117 4.79467773 29.92724609 C4.79530675 32.9127682 4.79530675 32.9127682 6 35 C3.03 35.495 3.03 35.495 0 36 C1.485 35.505 1.485 35.505 3 35 C3 24.44 3 13.88 3 3 C1.68 3 0.36 3 -1 3 C-0.67 2.01 -0.34 1.02 0 0 Z " fill="#1D1602" transform="translate(262,49)"/>
<path d="M0 0 C1.32 0.33 2.64 0.66 4 1 C3.21625 1.78375 2.4325 2.5675 1.625 3.375 C-1.78759075 7.3966367 -2.32434339 11.89727996 -3 17 C-3.66 17 -4.32 17 -5 17 C-5.76681614 7.42331839 -5.76681614 7.42331839 -3.88671875 3.93359375 C-2.5 2.3125 -2.5 2.3125 0 0 Z " fill="#D4CC88" transform="translate(219,54)"/>
<path d="M0 0 C10.2744465 -0.61646679 18.50293953 -0.46343721 26.71875 6.4453125 C28.125 7.8125 28.125 7.8125 30 10 C26.42097344 10 25.58398893 9.19599191 22.75 7.125 C15.55869213 2.21132501 8.50428694 1.58438138 0 1 C0 0.67 0 0.34 0 0 Z " fill="#2E1506" transform="translate(65,41)"/>
<path d="M0 0 C0.66 0 1.32 0 2 0 C2.268125 0.61875 2.53625 1.2375 2.8125 1.875 C3.95556848 4.2995233 3.95556848 4.2995233 7 6 C7 6.66 7 7.32 7 8 C4.9375 9.1875 4.9375 9.1875 2 10 C-0.54812724 9.27873258 -2.62082896 8.21291073 -5 7 C-5 6.34 -5 5.68 -5 5 C-3.02 5 -1.04 5 1 5 C0.67 3.35 0.34 1.7 0 0 Z " fill="#160F03" transform="translate(260,98)"/>
<path d="M0 0 C0.78375 0.04125 1.5675 0.0825 2.375 0.125 C2.705 1.775 3.035 3.425 3.375 5.125 C1.395 5.125 -0.585 5.125 -2.625 5.125 C-1.36958443 7.63583114 -0.12436512 7.99625446 2.375 9.125 C0.395 9.125 -1.585 9.125 -3.625 9.125 C-4.25 5.75 -4.25 5.75 -4.625 2.125 C-2.625 0.125 -2.625 0.125 0 0 Z " fill="#9D9774" transform="translate(321.625,97.875)"/>
<path d="M0 0 C0.78375 0.04125 1.5675 0.0825 2.375 0.125 C2.705 1.775 3.035 3.425 3.375 5.125 C1.395 5.125 -0.585 5.125 -2.625 5.125 C-2.295 5.785 -1.965 6.445 -1.625 7.125 C0.90233235 7.78055119 0.90233235 7.78055119 3.375 8.125 C3.375 8.455 3.375 8.785 3.375 9.125 C0.5 9.25 0.5 9.25 -2.625 9.125 C-4.625 7.125 -4.625 7.125 -4.875 4.625 C-4.51649553 1.03995533 -3.59522993 0.17120143 0 0 Z " fill="#9D986E" transform="translate(376.625,97.875)"/>
<path d="M0 0 C3.5 1.5 3.5 1.5 6 3 C6 4.32 6 5.64 6 7 C5.236875 6.54625 4.47375 6.0925 3.6875 5.625 C-0.89672653 3.29422458 -5.9658162 2.76139791 -11 2 C-7.29034259 -0.47310494 -4.30185433 -0.55899802 0 0 Z " fill="#CBC581" transform="translate(150,51)"/>
<path d="M0 0 C1.66611905 -0.042721 3.33382885 -0.04063832 5 0 C6 1 6 1 6.09765625 2.84765625 C6.06510417 4.8984375 6.03255208 6.94921875 6 9 C3.69 9 1.38 9 -1 9 C-0.67 7.35 -0.34 5.7 0 4 C1.32 3.67 2.64 3.34 4 3 C4 2.34 4 1.68 4 1 C2.68 0.67 1.36 0.34 0 0 Z " fill="#9A9473" transform="translate(383,98)"/>
<path d="M0 0 C0.33 0 0.66 0 1 0 C1.09796875 0.75023438 1.1959375 1.50046875 1.296875 2.2734375 C2.61337364 11.28464374 4.90286517 19.35429776 10 27 C4.87803226 25.09596417 3.46126745 21.16186091 1.1953125 16.46484375 C-0.70263148 10.96328717 -0.49988896 5.73946589 0 0 Z " fill="#321307" transform="translate(38,69)"/>
<path d="M0 0 C2.625 0.375 2.625 0.375 5 1 C5.33 2.32 5.66 3.64 6 5 C4.02 5.33 2.04 5.66 0 6 C0 6.66 0 7.32 0 8 C1.65 8 3.3 8 5 8 C5 8.33 5 8.66 5 9 C3.00045254 9.04254356 0.99958364 9.04080783 -1 9 C-2 8 -2 8 -2.1875 5.0625 C-2 2 -2 2 0 0 Z " fill="#9D9775" transform="translate(329,98)"/>
<path d="M0 0 C0.66 0 1.32 0 2 0 C2 1.65 2 3.3 2 5 C3.65 5 5.3 5 7 5 C8.4783226 7.95664519 8.06032783 10.74229737 8 14 C7.34 14 6.68 14 6 14 C5.67 11.69 5.34 9.38 5 7 C4.01 7.33 3.02 7.66 2 8 C1.67 9.98 1.34 11.96 1 14 C0.67 14 0.34 14 0 14 C0 9.38 0 4.76 0 0 Z " fill="#BEB987" transform="translate(202,93)"/>
<path d="M0 0 C3.3 0 6.6 0 10 0 C11.4783226 2.95664519 11.06032783 5.74229737 11 9 C10.34 9 9.68 9 9 9 C8.67 6.69 8.34 4.38 8 2 C7.34 2 6.68 2 6 2 C5.67 4.31 5.34 6.62 5 9 C4.34 9 3.68 9 3 9 C2.87625 7.88625 2.7525 6.7725 2.625 5.625 C2.3534187 1.96896323 2.3534187 1.96896323 0 0 Z " fill="#C2BC9F" transform="translate(304,98)"/>
<path d="M0 0 C0.5775 0.226875 1.155 0.45375 1.75 0.6875 C0.63625 1.244375 -0.4775 1.80125 -1.625 2.375 C-4.37066665 3.92497311 -5.13948859 4.47150043 -6.625 7.375 C-6.83125 8.138125 -7.0375 8.90125 -7.25 9.6875 C-7.58 10.0175 -7.91 10.3475 -8.25 10.6875 C-8.48075082 12.03497084 -8.66153063 13.39127565 -8.8125 14.75 C-8.956875 16.049375 -9.10125 17.34875 -9.25 18.6875 C-9.58 18.6875 -9.91 18.6875 -10.25 18.6875 C-10.60892545 13.64260345 -10.83426255 9.83515859 -8.5 5.25 C-3.4673913 -0.48158213 -3.4673913 -0.48158213 0 0 Z " fill="#2D2208" transform="translate(414.25,54.3125)"/>
<path d="M0 0 C-2.45238498 2.06000338 -4.38702177 3.14073519 -7.4375 4.25 C-11.99214257 6.48736828 -13.23982522 8.82030677 -16 13 C-16.66 13 -17.32 13 -18 13 C-16.64527694 7.41176736 -12.41886827 4.30998246 -8 1 C-4.84961475 -0.83094345 -3.48493967 -1.24462131 0 0 Z " fill="#251007" transform="translate(66,50)"/>
<path d="M0 0 C8.53994482 -0.55096418 14.93886453 1.26494958 22.0625 6.0625 C24 8 24 8 25 11 C24.01 11.495 24.01 11.495 23 12 C21.88625 10.8553125 21.88625 10.8553125 20.75 9.6875 C14.40744898 3.48909787 8.67185192 1.89708813 0 1 C0 0.67 0 0.34 0 0 Z " fill="#230E07" transform="translate(66,48)"/>
<path d="M0 0 C0 0.33 0 0.66 0 1 C-0.66386719 1.17015625 -1.32773438 1.3403125 -2.01171875 1.515625 C-7.23422661 2.94895562 -10.91395691 4.29702345 -15 8 C-15.66 8 -16.32 8 -17 8 C-17.33 8.99 -17.66 9.98 -18 11 C-18.33 10.01 -18.66 9.02 -19 8 C-17.61019248 6.86756424 -16.21285323 5.74436881 -14.8125 4.625 C-14.03519531 3.99851562 -13.25789063 3.37203125 -12.45703125 2.7265625 C-8.10267509 -0.33325534 -5.18905958 -1.48258845 0 0 Z " fill="#3E2410" transform="translate(66,42)"/>
<path d="M0 0 C0 2.97 0 5.94 0 9 C0.66 9.33 1.32 9.66 2 10 C0.35 9.67 -1.3 9.34 -3 9 C-3.12375 7.081875 -3.12375 7.081875 -3.25 5.125 C-3.45869931 2.94666582 -3.45869931 2.94666582 -4 1 C-5.92064793 -0.5899433 -5.92064793 -0.5899433 -8 -1 C-4.37673261 -2.2077558 -3.35853631 -1.54311128 0 0 Z " fill="#1D1607" transform="translate(392,98)"/>
<path d="M0 0 C0.99 0 1.98 0 3 0 C1.97386916 2.97577944 1.03368909 3.97754061 -1.625 5.75 C-5.74868017 7.27728895 -8.63323514 7.22586715 -13 7 C-10.57381059 3.66398956 -7.6771872 3.2776623 -3.83984375 2.52734375 C-1.7724008 2.0956725 -1.7724008 2.0956725 0 0 Z " fill="#C6C17D" transform="translate(155,78)"/>
<path d="M0 0 C-0.33 0.66 -0.66 1.32 -1 2 C-1.556875 1.67 -2.11375 1.34 -2.6875 1 C-6.74315367 -0.75379618 -10.82220953 -0.23244819 -15 1 C-17.54798166 3.90153551 -17.54798166 3.90153551 -19 7 C-19.66 7 -20.32 7 -21 7 C-19.82596494 3.65851561 -18.84565166 1.18896282 -16 -1 C-11.11364128 -2.99073874 -4.42235947 -2.94823965 0 0 Z " fill="#171101" transform="translate(238,56)"/>
<path d="M0 0 C1.65 1.32 3.3 2.64 5 4 C4.1875 5.9375 4.1875 5.9375 3 8 C2.01 8.33 1.02 8.66 0 9 C-0.99 7.35 -1.98 5.7 -3 4 C-2.34 4 -1.68 4 -1 4 C-0.67 2.68 -0.34 1.36 0 0 Z " fill="#DDCEAA" transform="translate(95,43)"/>
<path d="M0 0 C0.515625 0.7425 1.03125 1.485 1.5625 2.25 C4.47534392 5.53628545 7.12433906 6.98763759 11 9 C10.67 9.99 10.34 10.98 10 12 C9.67 11.34 9.34 10.68 9 10 C6.36 10 3.72 10 1 10 C1 9.34 1 8.68 1 8 C0.34 7.67 -0.32 7.34 -1 7 C-0.01 7 0.98 7 2 7 C1.34 6.01 0.68 5.02 0 4 C0 2.68 0 1.36 0 0 Z " fill="#181307" transform="translate(131,75)"/>
<path d="M0 0 C0.66 0.33 1.32 0.66 2 1 C-1.84530387 6.83425414 -1.84530387 6.83425414 -3.75 8.875 C-5.70979761 12.20665593 -5.19092467 15.18150668 -5 19 C-7.44630579 15.33054131 -7.7184766 12.26757786 -7 8 C-5.1875 5.75 -5.1875 5.75 -3 4 C-1.97676564 2.68441297 -0.96873032 1.35622245 0 0 Z " fill="#160C05" transform="translate(223,56)"/>
<path d="M0 0 C0.33 0 0.66 0 1 0 C1.103125 0.9075 1.20625 1.815 1.3125 2.75 C2.00414949 6.01961575 2.82134921 7.53717737 5 10 C4.01 11.98 3.02 13.96 2 16 C1.34 15.67 0.68 15.34 0 15 C0 10.05 0 5.1 0 0 Z " fill="#CAAB82" transform="translate(32,64)"/>
<path d="M0 0 C1.32 0.66 2.64 1.32 4 2 C4 2.99 4 3.98 4 5 C1.69 5 -0.62 5 -3 5 C-3.33 5.99 -3.66 6.98 -4 8 C-4 7.34 -4 6.68 -4 6 C-5.65 6.33 -7.3 6.66 -9 7 C-8.1646875 6.38125 -8.1646875 6.38125 -7.3125 5.75 C-4.83804044 3.87743601 -2.4164771 1.94660656 0 0 Z " fill="#785440" transform="translate(90,90)"/>
<path d="M0 0 C3 1 3 1 5 4 C5.1953125 6.26171875 5.1953125 6.26171875 5.125 8.6875 C5.10695312 9.49574219 5.08890625 10.30398437 5.0703125 11.13671875 C5.03550781 12.05904297 5.03550781 12.05904297 5 13 C4.34 13 3.68 13 3 13 C2.49487756 11.39743892 1.99608373 9.79288208 1.5 8.1875 C1.2215625 7.29417969 0.943125 6.40085937 0.65625 5.48046875 C0 3 0 3 0 0 Z " fill="#E0D78A" transform="translate(241,57)"/>
<path d="M0 0 C4.875 0.875 4.875 0.875 6 2 C6.07179964 3.51928038 6.08392007 5.04167482 6.0625 6.5625 C6.05347656 7.38878906 6.04445313 8.21507813 6.03515625 9.06640625 C6.01775391 10.02353516 6.01775391 10.02353516 6 11 C4.35 10.67 2.7 10.34 1 10 C1.57584432 7.61435923 2.22227595 5.33317216 3 3 C3 2.34 3 1.68 3 1 C2.01 0.67 1.02 0.34 0 0 Z " fill="#747155" transform="translate(289,98)"/>
<path d="M0 0 C0.66 0 1.32 0 2 0 C2.33 2.31 2.66 4.62 3 7 C3.33 7 3.66 7 4 7 C4 9.31 4 11.62 4 14 C3.34 14 2.68 14 2 14 C1.67 14.66 1.34 15.32 1 16 C1 12.7 1 9.4 1 6 C0.34 6 -0.32 6 -1 6 C-0.67 4.02 -0.34 2.04 0 0 Z " fill="#383316" transform="translate(200,94)"/>
<path d="M0 0 C0.8971875 0.309375 0.8971875 0.309375 1.8125 0.625 C-5.4519803 4.06671655 -11.10419061 6.29860912 -19.1875 5.625 C-14.97035682 3.51642841 -11.95039845 2.42473127 -7.16015625 2.00390625 C-4.1823976 1.43194073 -3.12411126 -0.53556193 0 0 Z " fill="#1B0903" transform="translate(85.1875,93.375)"/>
<path d="M0 0 C2.71728666 2.71728666 3.06073875 5.30557243 4 9 C4.2475 9.928125 4.495 10.85625 4.75 11.8125 C4.8325 12.534375 4.915 13.25625 5 14 C4.34 14.66 3.68 15.32 3 16 C0.54970669 10.28264895 -0.33266291 6.20970773 0 0 Z " fill="#D4CC7C" transform="translate(130,63)"/>
<path d="M0 0 C0.99 0.66 1.98 1.32 3 2 C3.99 2.33 4.98 2.66 6 3 C5.25 4.9375 5.25 4.9375 4 7 C1.875 7.75 1.875 7.75 0 8 C-1.125 6.25 -1.125 6.25 -2 4 C-1.125 1.75 -1.125 1.75 0 0 Z " fill="#D8C499" transform="translate(37,53)"/>
<path d="M0 0 C1.65 0 3.3 0 5 0 C4.34 3.3 3.68 6.6 3 10 C2.01 10 1.02 10 0 10 C0 6.7 0 3.4 0 0 Z " fill="#868258" transform="translate(366,98)"/>
<path d="M0 0 C0.99 0.33 1.98 0.66 3 1 C3.25 3.8125 3.25 3.8125 3 7 C1 8.875 1 8.875 -1 10 C-1.66 9.34 -2.32 8.68 -3 8 C-2.34 8 -1.68 8 -1 8 C-1.020625 6.865625 -1.04125 5.73125 -1.0625 4.5625 C-1 1 -1 1 0 0 Z " fill="#140E05" transform="translate(310,99)"/>
<path d="M0 0 C0.66 0.33 1.32 0.66 2 1 C1.67 1.66 1.34 2.32 1 3 C1.66 3.33 2.32 3.66 3 4 C2.67 5.65 2.34 7.3 2 9 C0.35 9 -1.3 9 -3 9 C-2.4140625 2.84765625 -2.4140625 2.84765625 -2 1 C-1.34 0.67 -0.68 0.34 0 0 Z " fill="#5A5745" transform="translate(418,90)"/>
<path d="M0 0 C0.66 0.66 1.32 1.32 2 2 C0.8553125 2.804375 0.8553125 2.804375 -0.3125 3.625 C-3.22864474 6.20205814 -4.4705622 8.45814404 -6 12 C-6.144375 11.38125 -6.28875 10.7625 -6.4375 10.125 C-6.93152225 7.96741678 -6.93152225 7.96741678 -8 6 C-5.56246661 3.56246661 -3.09038848 1.54519424 0 0 Z " fill="#1B1305" transform="translate(137,51)"/>
<path d="M0 0 C0.66 0 1.32 0 2 0 C2.05416188 1.60379341 2.09286638 3.20811406 2.125 4.8125 C2.14820313 5.70582031 2.17140625 6.59914063 2.1953125 7.51953125 C2 10 2 10 0 13 C-3.125 13.1875 -3.125 13.1875 -6 13 C-6 12.67 -6 12.34 -6 12 C-4.35 11.67 -2.7 11.34 -1 11 C-1.01160156 10.28972656 -1.02320313 9.57945313 -1.03515625 8.84765625 C-1.04869141 7.46900391 -1.04869141 7.46900391 -1.0625 6.0625 C-1.07410156 5.14597656 -1.08570313 4.22945313 -1.09765625 3.28515625 C-1 1 -1 1 0 0 Z " fill="#C5C08F" transform="translate(282,98)"/>
<path d="M0 0 C1.65 0.33 3.3 0.66 5 1 C5 1.66 5 2.32 5 3 C4.071875 3.4021875 4.071875 3.4021875 3.125 3.8125 C0.7004767 4.95556848 0.7004767 4.95556848 -1 8 C-1 7.34 -1 6.68 -1 6 C-3.31 6.33 -5.62 6.66 -8 7 C-8 6.34 -8 5.68 -8 5 C-6.02 5 -4.04 5 -2 5 C-1.34 3.35 -0.68 1.7 0 0 Z " fill="#231C0B" transform="translate(382,98)"/>
<path d="M0 0 C1.65 0 3.3 0 5 0 C3.68 0.33 2.36 0.66 1 1 C1.680625 1.5775 2.36125 2.155 3.0625 2.75 C3.701875 3.4925 4.34125 4.235 5 5 C4.75 7.25 4.75 7.25 4 9 C2.68 9.33 1.36 9.66 0 10 C-0.33 9.34 -0.66 8.68 -1 8 C0.32 8 1.64 8 3 8 C2.319375 7.4225 1.63875 6.845 0.9375 6.25 C0.298125 5.5075 -0.34125 4.765 -1 4 C-0.75 1.75 -0.75 1.75 0 0 Z " fill="#ABA988" transform="translate(344,98)"/>
<path d="M0 0 C2.0625 0.4375 2.0625 0.4375 4 1 C4 2.65 4 4.3 4 6 C2.0625 6.5625 2.0625 6.5625 0 7 C-1 6 -1 6 -1.125 3.5 C-1 1 -1 1 0 0 Z " fill="#1D1503" transform="translate(278,99)"/>
<path d="M0 0 C2.0625 0.4375 2.0625 0.4375 4 1 C4 2.65 4 4.3 4 6 C2.0625 6.5625 2.0625 6.5625 0 7 C-1 6 -1 6 -1.125 3.5 C-1 1 -1 1 0 0 Z " fill="#1A1103" transform="translate(245,99)"/>
<path d="M0 0 C2.0625 0.4375 2.0625 0.4375 4 1 C4 2.65 4 4.3 4 6 C2.0625 6.5625 2.0625 6.5625 0 7 C-1 6 -1 6 -1.125 3.5 C-1 1 -1 1 0 0 Z " fill="#1E1404" transform="translate(358,99)"/>
<path d="M0 0 C1.96446905 1.6344795 2.92317791 2.46429394 3.29296875 5.04296875 C3.1953125 7.02864583 3.09765625 9.01432292 3 11 C4.98 11 6.96 11 9 11 C9 11.33 9 11.66 9 12 C5.625 12.625 5.625 12.625 2 13 C0 11 0 11 -0.1953125 8.3984375 C-0.17210937 7.40070313 -0.14890625 6.40296875 -0.125 5.375 C-0.10695312 4.37210937 -0.08890625 3.36921875 -0.0703125 2.3359375 C-0.04710937 1.56507812 -0.02390625 0.79421875 0 0 Z " fill="#20190D" transform="translate(251,96)"/>
<path d="M0 0 C-0.33 0.66 -0.66 1.32 -1 2 C-4.47325181 3.1577506 -7.36067448 3.06866652 -11 3 C-11 2.67 -11 2.34 -11 2 C-13.97 1.505 -13.97 1.505 -17 1 C-17 0.67 -17 0.34 -17 0 C-15.10507254 -0.19644384 -13.20899097 -0.38177288 -11.3125 -0.5625 C-9.72888672 -0.71912109 -9.72888672 -0.71912109 -8.11328125 -0.87890625 C-5.18573914 -0.99277552 -2.82868856 -0.70848415 0 0 Z " fill="#B9AF6C" transform="translate(380,81)"/>
<path d="M0 0 C2.475 0.99 2.475 0.99 5 2 C5.05389087 3.95803507 5.09274217 5.91648909 5.125 7.875 C5.14820313 8.96554688 5.17140625 10.05609375 5.1953125 11.1796875 C5 14 5 14 3 16 C2.92652344 14.89591797 2.92652344 14.89591797 2.8515625 13.76953125 C2.77679688 12.79371094 2.70203125 11.81789063 2.625 10.8125 C2.55539062 9.84957031 2.48578125 8.88664062 2.4140625 7.89453125 C1.99784147 4.98491062 1.20125904 2.67109226 0 0 Z " fill="#1A1303" transform="translate(384,57)"/>
<path d="M0 0 C0.92232422 0.06960937 0.92232422 0.06960937 1.86328125 0.140625 C1.86328125 0.470625 1.86328125 0.800625 1.86328125 1.140625 C0.25453125 1.45 0.25453125 1.45 -1.38671875 1.765625 C-5.84263049 3.3994593 -6.91449483 5.05173299 -9.13671875 9.140625 C-9.79671875 8.810625 -10.45671875 8.480625 -11.13671875 8.140625 C-9.83466188 0.84910653 -6.97799192 -0.31161686 0 0 Z " fill="#151007" transform="translate(148.13671875,53.859375)"/>
<path d="M0 0 C0.33 0 0.66 0 1 0 C1 1.98 1 3.96 1 6 C1.66 6.33 2.32 6.66 3 7 C1.51793505 6.745504 0.03931385 6.47088238 -1.4375 6.1875 C-2.26121094 6.03667969 -3.08492187 5.88585937 -3.93359375 5.73046875 C-4.61550781 5.48941406 -5.29742187 5.24835938 -6 5 C-6.33 4.01 -6.66 3.02 -7 2 C-4.69 2 -2.38 2 0 2 C0 1.34 0 0.68 0 0 Z " fill="#150E02" transform="translate(221,101)"/>
<path d="M0 0 C0.33 0 0.66 0 1 0 C1.0825 1.19625 1.165 2.3925 1.25 3.625 C1.7767929 8.04377027 3.29865987 10.51439983 6 14 C5.01 14.66 4.02 15.32 3 16 C0.1647887 10.4477112 -0.37952295 6.19887485 0 0 Z " fill="#D2C781" transform="translate(401,63)"/>
<path d="M0 0 C5.21130865 0.40873009 8.39958746 1.081904 12 5 C12.8125 8.25 12.8125 8.25 13 11 C12.67 10.01 12.34 9.02 12 8 C11.01 7.67 10.02 7.34 9 7 C8.38125 6.360625 7.7625 5.72125 7.125 5.0625 C4.84760538 2.85208757 2.98291902 1.99430634 0 1 C0 0.67 0 0.34 0 0 Z " fill="#2A210A" transform="translate(371,55)"/>
<path d="M0 0 C3.85645478 1.13940709 7.06505829 2.17794066 10 5 C10 5.99 10 6.98 10 8 C8.02 7.34 6.04 6.68 4 6 C4 5.01 4 4.02 4 3 C2.68 2.34 1.36 1.68 0 1 C0 0.67 0 0.34 0 0 Z " fill="#A87E58" transform="translate(79,43)"/>
<path d="M0 0 C2 1 2 1 3.125 4.0625 C3.41375 5.031875 3.7025 6.00125 4 7 C4.66 6.01 5.32 5.02 6 4 C5.67 6.64 5.34 9.28 5 12 C4.01 12 3.02 12 2 12 C0.86235649 7.73383684 0 4.43513689 0 0 Z " fill="#C8C298" transform="translate(185,95)"/>
<path d="M0 0 C-0.185625 0.78375 -0.37125 1.5675 -0.5625 2.375 C-1.25962266 4.97089775 -1.25962266 4.97089775 0 7 C-2.9375 6.625 -2.9375 6.625 -6 6 C-6.33 5.34 -6.66 4.68 -7 4 C-6.34 3.67 -5.68 3.34 -5 3 C-5.33 2.34 -5.66 1.68 -6 1 C-3 0 -3 0 0 0 Z " fill="#764A31" transform="translate(81,97)"/>
<path d="M0 0 C0.66 0 1.32 0 2 0 C2 0.66 2 1.32 2 2 C3.65 2 5.3 2 7 2 C6.01 2.66 5.02 3.32 4 4 C3.34 3.67 2.68 3.34 2 3 C2 5.64 2 8.28 2 11 C1.01 11.495 1.01 11.495 0 12 C0 8.04 0 4.08 0 0 Z " fill="#150A03" transform="translate(364,95)"/>
<path d="M0 0 C0.639375 0.165 1.27875 0.33 1.9375 0.5 C7.01913003 1.32965388 12.08480978 1.63839674 17 0 C16.67 1.65 16.34 3.3 16 5 C15.67 4.34 15.34 3.68 15 3 C14.01 3.33 13.02 3.66 12 4 C9.58984375 3.9140625 9.58984375 3.9140625 6.9375 3.625 C6.05964844 3.53476563 5.18179688 3.44453125 4.27734375 3.3515625 C2 3 2 3 0 2 C0 1.34 0 0.68 0 0 Z " fill="#1D1404" transform="translate(221,83)"/>
<path d="M0 0 C0.33 0 0.66 0 1 0 C1 2.64 1 5.28 1 8 C1.99 8.33 2.98 8.66 4 9 C5.1875 12.0625 5.1875 12.0625 6 15 C4.125 14.8125 4.125 14.8125 2 14 C-0.69561188 9.68702099 -0.19227075 4.90290403 0 0 Z " fill="#D0C781" transform="translate(213,63)"/>
<path d="M0 0 C1.5 1.0625 1.5 1.0625 3 3 C3.1875 6.6875 3.1875 6.6875 3 10 C1.02 10.99 1.02 10.99 -1 12 C-1.33 11.34 -1.66 10.68 -2 10 C-1.34 10 -0.68 10 0 10 C-0.08378906 9.36191406 -0.16757812 8.72382812 -0.25390625 8.06640625 C-0.35574219 7.24011719 -0.45757812 6.41382812 -0.5625 5.5625 C-0.66691406 4.73878906 -0.77132813 3.91507812 -0.87890625 3.06640625 C-0.91886719 2.38449219 -0.95882813 1.70257813 -1 1 C-0.67 0.67 -0.34 0.34 0 0 Z " fill="#1B1506" transform="translate(315,97)"/>
<path d="M0 0 C0.90105469 0.11085937 1.80210937 0.22171875 2.73046875 0.3359375 C3.76107422 0.47902344 3.76107422 0.47902344 4.8125 0.625 C4.8125 0.955 4.8125 1.285 4.8125 1.625 C4.05324219 1.75777344 3.29398438 1.89054687 2.51171875 2.02734375 C1.51785156 2.20394531 0.52398437 2.38054688 -0.5 2.5625 C-1.48613281 2.73652344 -2.47226563 2.91054688 -3.48828125 3.08984375 C-6.26939213 3.58246847 -6.26939213 3.58246847 -9.1875 4.625 C-7.47278804 -0.51913588 -4.85310333 -0.63027316 0 0 Z " fill="#1B1404" transform="translate(228.1875,49.375)"/>
<path d="M0 0 C0.66 0 1.32 0 2 0 C2 0.66 2 1.32 2 2 C2.99 2.33 3.98 2.66 5 3 C4.01 3 3.02 3 2 3 C2 5.31 2 7.62 2 10 C2.66 10.33 3.32 10.66 4 11 C2.68 10.67 1.36 10.34 0 10 C-1.125 2.25 -1.125 2.25 0 0 Z " fill="#B6B484" transform="translate(337,96)"/>
<path d="M0 0 C1.98 0.495 1.98 0.495 4 1 C3.01 1 2.02 1 1 1 C1 1.99 1 2.98 1 4 C2.32 4.33 3.64 4.66 5 5 C4.67 6.32 4.34 7.64 4 9 C2.35 9 0.7 9 -1 9 C0.32 8.67 1.64 8.34 3 8 C2.319375 7.4225 1.63875 6.845 0.9375 6.25 C0.298125 5.5075 -0.34125 4.765 -1 4 C-0.75 1.75 -0.75 1.75 0 0 Z " fill="#BCB89A" transform="translate(264,98)"/>
<path d="M0 0 C0.66 0.33 1.32 0.66 2 1 C1.67 2.98 1.34 4.96 1 7 C-0.65 7 -2.3 7 -4 7 C-2.92598892 4.08482708 -2.22189824 2.22189824 0 0 Z " fill="#6D6A54" transform="translate(181,92)"/>
<path d="M0 0 C0.74507812 0.05220703 1.49015625 0.10441406 2.2578125 0.15820312 C4.08894861 0.2873217 5.91953813 0.42415114 7.75 0.5625 C7.75 0.8925 7.75 1.2225 7.75 1.5625 C6.71359375 1.62308594 5.6771875 1.68367188 4.609375 1.74609375 C3.23957127 1.83053371 1.86978025 1.91517997 0.5 2 C-0.52287109 2.05897461 -0.52287109 2.05897461 -1.56640625 2.11914062 C-4.89448041 2.32916472 -8.05255402 2.58184002 -11.25 3.5625 C-11.58 2.5725 -11.91 1.5825 -12.25 0.5625 C-8.10340627 -0.63549449 -4.25630953 -0.3271192 0 0 Z " fill="#BCAA8F" transform="translate(68.25,39.4375)"/>
<path d="M0 0 C2.4750171 1.11431765 4.67883419 2.58150978 7 4 C6.67 4.99 6.34 5.98 6 7 C2.08597051 5.73058503 0.20927127 4.48832306 -2 1 C-1.34 0.67 -0.68 0.34 0 0 Z " fill="#CEC586" transform="translate(286,77)"/>
<path d="M0 0 C2 0.75 2 0.75 4 3.75 C3.67 4.74 3.34 5.73 3 6.75 C0.11604263 5.30802132 -1.76525152 3.04355765 -4 0.75 C-2 -0.25 -2 -0.25 0 0 Z " fill="#EDDFB4" transform="translate(91,40.25)"/>
<path d="M0 0 C2.125 0.375 2.125 0.375 4 1 C3.01 1.33 2.02 1.66 1 2 C0.74969023 4.41619823 0.74969023 4.41619823 1 7 C1.99 7.66 2.98 8.32 4 9 C2.33388095 9.042721 0.66617115 9.04063832 -1 9 C-2 8 -2 8 -2.1875 5.0625 C-2 2 -2 2 0 0 Z " fill="#BBB698" transform="translate(357,98)"/>
<path d="M0 0 C2.125 0.375 2.125 0.375 4 1 C3.01 1.33 2.02 1.66 1 2 C0.74969023 4.41619823 0.74969023 4.41619823 1 7 C1.99 7.66 2.98 8.32 4 9 C2.33388095 9.042721 0.66617115 9.04063832 -1 9 C-2 8 -2 8 -2.1875 5.0625 C-2 2 -2 2 0 0 Z " fill="#C2C08F" transform="translate(244,98)"/>
<path d="M0 0 C-0.99 0.66 -1.98 1.32 -3 2 C-3.25030977 4.58380177 -3.25030977 4.58380177 -3 7 C-4.65 6.67 -6.3 6.34 -8 6 C-6.53781513 1.3697479 -6.53781513 1.3697479 -4 -0.375 C-2 -1 -2 -1 0 0 Z " fill="#221E10" transform="translate(189,94)"/>
<path d="M0 0 C2.31 1.65 4.62 3.3 7 5 C6.34 5.66 5.68 6.32 5 7 C2.525 6.01 2.525 6.01 0 5 C0 3.35 0 1.7 0 0 Z " fill="#160F04" transform="translate(403,78)"/>
<path d="M0 0 C2.3129482 2.3129482 2.49580975 3.47904875 3.125 6.625 C3.29257812 7.44226563 3.46015625 8.25953125 3.6328125 9.1015625 C3.81457031 10.04128906 3.81457031 10.04128906 4 11 C3.01 10.67 2.02 10.34 1 10 C-0.60725635 6.78548731 -0.05748185 3.56387464 0 0 Z " fill="#E6DC8E" transform="translate(282,67)"/>
<path d="M0 0 C0.66 0 1.32 0 2 0 C2.1875 2.875 2.1875 2.875 2 6 C1.01 6.66 0.02 7.32 -1 8 C-1.99 7.67 -2.98 7.34 -4 7 C-3.34 7 -2.68 7 -2 7 C-1.34 4.69 -0.68 2.38 0 0 Z " fill="#120C03" transform="translate(199,100)"/>
<path d="M0 0 C0.66 0 1.32 0 2 0 C2 2.64 2 5.28 2 8 C1.01 8.33 0.02 8.66 -1 9 C-1.09765625 2.84765625 -1.09765625 2.84765625 -1 1 C-0.67 0.67 -0.34 0.34 0 0 Z " fill="#130A02" transform="translate(395,99)"/>
<path d="M0 0 C1.65 0 3.3 0 5 0 C4.01 1.485 4.01 1.485 3 3 C2.60986284 4.9896995 2.26797351 6.99019869 2 9 C1.34 9 0.68 9 0 9 C0 6.03 0 3.06 0 0 Z " fill="#B5B181" transform="translate(222,98)"/>
<path d="M0 0 C2.40072955 2.88087546 4.47291037 5.56404834 6 9 C4.68 9.33 3.36 9.66 2 10 C0.39644899 6.49223216 -0.22036864 3.85645121 0 0 Z " fill="#1B0B05" transform="translate(34,89)"/>
<path d="M0 0 C0.99 0.66 1.98 1.32 3 2 C2.67 3.65 2.34 5.3 2 7 C0.68 6.34 -0.64 5.68 -2 5 C-2 3.68 -2 2.36 -2 1 C-1.34 0.67 -0.68 0.34 0 0 Z " fill="#B89661" transform="translate(42,92)"/>
<path d="M0 0 C0.33 0 0.66 0 1 0 C1.0270043 1.45823212 1.04639787 2.91660675 1.0625 4.375 C1.07410156 5.18710938 1.08570313 5.99921875 1.09765625 6.8359375 C1 9 1 9 0 11 C-0.66 11 -1.32 11 -2 11 C-1.85892253 9.54119891 -1.71197585 8.08296449 -1.5625 6.625 C-1.48128906 5.81289062 -1.40007812 5.00078125 -1.31640625 4.1640625 C-1 2 -1 2 0 0 Z " fill="#E6DC90" transform="translate(386,64)"/>
<path d="M0 0 C5.03985731 0.44469329 7.37634988 2.71343362 11 6 C10.34 6.66 9.68 7.32 9 8 C7.49712782 6.85793642 5.99776716 5.71125043 4.5 4.5625 C3.6646875 3.92441406 2.829375 3.28632812 1.96875 2.62890625 C1.3190625 2.09136719 0.669375 1.55382813 0 1 C0 0.67 0 0.34 0 0 Z " fill="#3D220F" transform="translate(84,44)"/>
<path d="M0 0 C0.66 0 1.32 0 2 0 C2 0.66 2 1.32 2 2 C2.99 2.33 3.98 2.66 5 3 C6.1875 6.5625 6.1875 6.5625 7 10 C3.60582235 6.87378374 1.3937282 4.43458973 0 0 Z " fill="#1A0704" transform="translate(47,82)"/>
<path d="M0 0 C0.99 0.33 1.98 0.66 3 1 C3 2.98 3 4.96 3 7 C2.67 6.34 2.34 5.68 2 5 C1.01 5.33 0.02 5.66 -1 6 C-1.042721 4.33388095 -1.04063832 2.66617115 -1 1 C-0.67 0.67 -0.34 0.34 0 0 Z " fill="#120D01" transform="translate(205,99)"/>
<path d="M0 0 C4 4.625 4 4.625 4 8 C3.01 8.33 2.02 8.66 1 9 C-1.125 2.25 -1.125 2.25 0 0 Z " fill="#1D1506" transform="translate(282,75)"/>
<path d="M0 0 C0.66 0.33 1.32 0.66 2 1 C1.67 2.32 1.34 3.64 1 5 C-3.455 5.495 -3.455 5.495 -8 6 C-7.01 5.34 -6.02 4.68 -5 4 C-3.32576317 2.67618483 -1.65788785 1.34423339 0 0 Z " fill="#2F2612" transform="translate(158,79)"/>
<path d="M0 0 C0.66 0.33 1.32 0.66 2 1 C1.67 3.97 1.34 6.94 1 10 C0.34 10 -0.32 10 -1 10 C-1.02689216 8.52093108 -1.04634621 7.04172517 -1.0625 5.5625 C-1.07410156 4.73878906 -1.08570313 3.91507812 -1.09765625 3.06640625 C-1 1 -1 1 0 0 Z " fill="#E6DF8F" transform="translate(215,61)"/>
<path d="M0 0 C4.31606218 2.99481865 4.31606218 2.99481865 6 5 C5.875 8.3125 5.875 8.3125 5 11 C4.731875 10.443125 4.46375 9.88625 4.1875 9.3125 C2.99300335 6.91066602 2.99300335 6.91066602 1.375 4.375 C0 2 0 2 0 0 Z " fill="#1A1104" transform="translate(242,54)"/>
<path d="M0 0 C1.32 0.99 2.64 1.98 4 3 C2.25 6.875 2.25 6.875 0 8 C-0.38063221 5.6739143 -0.71269945 3.33944736 -1 1 C-0.67 0.67 -0.34 0.34 0 0 Z " fill="#A48469" transform="translate(96,95)"/>
<path d="M0 0 C0.66 0.66 1.32 1.32 2 2 C0.35 3.32 -1.3 4.64 -3 6 C-4.32 4.35 -5.64 2.7 -7 1 C-5.5459375 1.0309375 -5.5459375 1.0309375 -4.0625 1.0625 C-1.12534105 1.35618499 -1.12534105 1.35618499 0 0 Z " fill="#957257" transform="translate(93,52)"/>
<path d="M0 0 C0.625 1.875 0.625 1.875 1 4 C0.34 4.66 -0.32 5.32 -1 6 C-2.98 5.01 -4.96 4.02 -7 3 C-4.66785852 1.79371992 -2.50357861 0.8345262 0 0 Z " fill="#221708" transform="translate(241,49)"/>
<path d="M0 0 C0.66 0.66 1.32 1.32 2 2 C1.34 3.32 0.68 4.64 0 6 C-1.65 5.67 -3.3 5.34 -5 5 C-4.1875 3.0625 -4.1875 3.0625 -3 1 C-2.01 0.67 -1.02 0.34 0 0 Z " fill="#B8875B" transform="translate(56,47)"/>
<path d="M0 0 C0.99 0.33 1.98 0.66 3 1 C2.67 3.64 2.34 6.28 2 9 C1.34 9 0.68 9 0 9 C0 6.03 0 3.06 0 0 Z " fill="#C7C1A1" transform="translate(301,98)"/>
<path d="M0 0 C0.99 0.33 1.98 0.66 3 1 C2.67 3.64 2.34 6.28 2 9 C1.34 9 0.68 9 0 9 C0 6.03 0 3.06 0 0 Z " fill="#B8B37D" transform="translate(286,98)"/>
<path d="M0 0 C0.66 0.99 1.32 1.98 2 3 C1.125 6.6875 1.125 6.6875 0 10 C-2.16695725 7.83304275 -2.73495121 7.00388632 -3 4 C-1.5625 1.75 -1.5625 1.75 0 0 Z " fill="#130F06" transform="translate(355,96)"/>
<path d="M0 0 C0.33 0.99 0.66 1.98 1 3 C-0.9375 6.1875 -0.9375 6.1875 -3 9 C-3.99 8.34 -4.98 7.68 -6 7 C-5.01 6.67 -4.02 6.34 -3 6 C-1.84478498 3.52869082 -1.84478498 3.52869082 -1 1 C-0.67 0.67 -0.34 0.34 0 0 Z " fill="#241C09" transform="translate(245,75)"/>
<path d="M0 0 C0.33 0.99 0.66 1.98 1 3 C-0.40445835 5.2636564 -2.1967913 7.0208685 -4 9 C-4.33 8.34 -4.66 7.68 -5 7 C-3.88820837 3.66462511 -2.52588702 2.36292656 0 0 Z " fill="#1B1203" transform="translate(242,71)"/>
<path d="M0 0 C0.66 0 1.32 0 2 0 C2.33 1.65 2.66 3.3 3 5 C2.01 5.66 1.02 6.32 0 7 C-0.33 6.01 -0.66 5.02 -1 4 C-1.66 4 -2.32 4 -3 4 C-2 2 -2 2 0 1 C0 0.67 0 0.34 0 0 Z " fill="#1A160A" transform="translate(428,54)"/>
<path d="M0 0 C2.375 0.25 2.375 0.25 5 1 C6.3125 3.0625 6.3125 3.0625 7 5 C6.01 5 5.02 5 4 5 C1.8125 2.5 1.8125 2.5 0 0 Z " fill="#DAD491" transform="translate(301,52)"/>
<path d="M0 0 C0.66 0 1.32 0 2 0 C3 3 3 3 2.0625 5.1875 C1.5365625 6.0846875 1.5365625 6.0846875 1 7 C0.67 6.67 0.34 6.34 0 6 C-0.66 6.66 -1.32 7.32 -2 8 C-1.47731534 5.23723823 -0.89130413 2.6739124 0 0 Z " fill="#1E1806" transform="translate(226,97)"/>
<path d="M0 0 C2.31 1.65 4.62 3.3 7 5 C4 6 4 6 1 6 C0.67 4.02 0.34 2.04 0 0 Z " fill="#1E0B05" transform="translate(40,99)"/>
<path d="M0 0 C2.56687367 3.8503105 1.83288724 5.58569763 1 10 C0.34 9.67 -0.32 9.34 -1 9 C-0.67 6.03 -0.34 3.06 0 0 Z " fill="#C19B6D" transform="translate(38,82)"/>
<path d="M0 0 C0.99 0 1.98 0 3 0 C2.25 1.9375 2.25 1.9375 1 4 C-1.125 4.75 -1.125 4.75 -3 5 C-1.125 1.125 -1.125 1.125 0 0 Z " fill="#DAD28F" transform="translate(155,78)"/>
<path d="M0 0 C3.26954202 0.56371414 4.82575883 1.49962266 7 4 C6.01 4.33 5.02 4.66 4 5 C1.8125 3.6875 1.8125 3.6875 0 2 C0 1.34 0 0.68 0 0 Z " fill="#DED48F" transform="translate(405,78)"/>
<path d="M0 0 C0.66 0.33 1.32 0.66 2 1 C1.21654285 2.17219543 0.42297164 3.33763668 -0.375 4.5 C-0.81585938 5.1496875 -1.25671875 5.799375 -1.7109375 6.46875 C-2.13632813 6.9740625 -2.56171875 7.479375 -3 8 C-3.66 8 -4.32 8 -5 8 C-3.8141763 4.62496331 -2.72426311 2.35277269 0 0 Z " fill="#30260B" transform="translate(222,55)"/>
<path d="M0 0 C0.61617188 0.18949219 1.23234375 0.37898438 1.8671875 0.57421875 C0.57621969 1.3878287 -0.71561125 2.20006921 -2.0078125 3.01171875 C-2.72710937 3.46417969 -3.44640625 3.91664062 -4.1875 4.3828125 C-6.1328125 5.57421875 -6.1328125 5.57421875 -8.1328125 6.57421875 C-6.59355861 2.85435517 -4.48364726 -0.89508709 0 0 Z " fill="#2B230A" transform="translate(294.1328125,54.42578125)"/>
<path d="M0 0 C1.69141656 0.08963062 3.37959602 0.24577676 5.0625 0.4375 C6.44115234 0.59025391 6.44115234 0.59025391 7.84765625 0.74609375 C8.55792969 0.82988281 9.26820313 0.91367187 10 1 C10 1.33 10 1.66 10 2 C8.54364629 2.22174933 7.08477044 2.42698698 5.625 2.625 C4.81289062 2.74101563 4.00078125 2.85703125 3.1640625 2.9765625 C2.44992188 2.98429687 1.73578125 2.99203125 1 3 C0.34 2.34 -0.32 1.68 -1 1 C-0.67 0.67 -0.34 0.34 0 0 Z " fill="#BFB974" transform="translate(222,52)"/>
<path d="M0 0 C0.33 0.66 0.66 1.32 1 2 C1.99 2 2.98 2 4 2 C3.34 4.31 2.68 6.62 2 9 C1.67 9 1.34 9 1 9 C0.67 6.03 0.34 3.06 0 0 Z " fill="#1F1C06" transform="translate(194,95)"/>
</svg>
